<svg xmlns="http://www.w3.org/2000/svg" viewBox="0 0 1100 330" font-family="-apple-system, BlinkMacSystemFont, 'Segoe UI', Helvetica, Arial, sans-serif">
<text x="320" y="40" font-size="15" font-weight="700" fill="#e6edf3" text-anchor="middle">Rotate mid-recording</text>
<rect x="110" y="78" width="116" height="192" rx="14" fill="#161b22" stroke="#30363d" stroke-width="2.5"/>
<circle cx="168" cy="151" r="15" fill="#f0883e"/>
<path d="M 163.2 143.4 l 13.6 7.5 l -13.6 7.5 z" fill="#161b22"/>
<rect x="138" y="197" width="60" height="6" rx="3" fill="#8b949e" opacity="0.55"/>
<rect x="148" y="211" width="39" height="6" rx="3" fill="#8b949e" opacity="0.4"/>
<text x="208" y="70" font-size="22" font-weight="700" fill="#f0883e">✓</text>
<rect x="380" y="116" width="196" height="116" rx="14" fill="#161b22" stroke="#30363d" stroke-width="2.5"/>
<circle cx="478" cy="160" r="15" fill="#f0883e"/>
<path d="M 473.2 152.5 l 13.6 7.5 l -13.6 7.5 z" fill="#161b22"/>
<rect x="427" y="188" width="102" height="6" rx="3" fill="#8b949e" opacity="0.55"/>
<rect x="445" y="202" width="67" height="6" rx="3" fill="#8b949e" opacity="0.4"/>
<circle cx="556" cy="210" r="9" fill="#f0883e"/>
<text x="558" y="108" font-size="22" font-weight="700" fill="#f0883e">✓</text>
<path d="M 252 156 Q 310 102 356 144" fill="none" stroke="#9198a1" stroke-width="2.5"/>
<path d="M 356 144 l -12 -3 l 6 11 z" fill="#9198a1"/>
<text x="320" y="300" font-size="14" font-weight="600" fill="#f0883e" text-anchor="middle">clips come out upright — native resolution per orientation</text>
<line x1="630" y1="56" x2="630" y2="284" stroke="#30363d" stroke-width="1.5" stroke-dasharray="5 6"/>
<text x="872" y="40" font-size="15" font-weight="700" fill="#e6edf3" text-anchor="middle">Every device QA actually uses</text>
<rect x="672" y="124" width="76" height="134" rx="14" fill="#161b22" stroke="#30363d" stroke-width="2.5"/>
<circle cx="710" cy="175" r="10" fill="#f0883e"/>
<path d="M 706.8 170.0 l 8.9 4.9 l -8.9 4.9 z" fill="#161b22"/>
<rect x="690" y="207" width="40" height="6" rx="3" fill="#8b949e" opacity="0.55"/>
<rect x="697" y="221" width="26" height="6" rx="3" fill="#8b949e" opacity="0.4"/>
<text x="730" y="116" font-size="22" font-weight="700" fill="#f0883e">✓</text>
<rect x="784" y="98" width="92" height="160" rx="14" fill="#161b22" stroke="#30363d" stroke-width="2.5"/>
<circle cx="830" cy="159" r="12" fill="#f0883e"/>
<path d="M 826.2 152.8 l 10.8 6.0 l -10.8 6.0 z" fill="#161b22"/>
<rect x="806" y="197" width="48" height="6" rx="3" fill="#8b949e" opacity="0.55"/>
<rect x="814" y="211" width="31" height="6" rx="3" fill="#8b949e" opacity="0.4"/>
<circle cx="856" cy="236" r="9" fill="#f0883e"/>
<text x="858" y="90" font-size="22" font-weight="700" fill="#f0883e">✓</text>
<rect x="908" y="106" width="172" height="144" rx="14" fill="#161b22" stroke="#30363d" stroke-width="2.5"/>
<circle cx="994" cy="161" r="19" fill="#f0883e"/>
<path d="M 988.0 151.4 l 16.8 9.4 l -16.8 9.4 z" fill="#161b22"/>
<rect x="949" y="195" width="89" height="6" rx="3" fill="#8b949e" opacity="0.55"/>
<rect x="965" y="209" width="58" height="6" rx="3" fill="#8b949e" opacity="0.4"/>
<line x1="1015" y1="114" x2="1015" y2="242" stroke="#8b949e" stroke-width="2" stroke-dasharray="6 5" opacity="0.6"/>
<circle cx="1060" cy="228" r="9" fill="#f0883e"/>
<text x="1062" y="98" font-size="22" font-weight="700" fill="#f0883e">✓</text>
<text x="710" y="282" font-size="13" fill="#9198a1" text-anchor="middle">SE · iOS 16.4</text>
<text x="830" y="282" font-size="13" fill="#9198a1" text-anchor="middle">iPhone</text>
<text x="994" y="282" font-size="13" fill="#9198a1" text-anchor="middle">iPad · Split View</text>
<text x="872" y="304" font-size="14" font-weight="600" fill="#f0883e" text-anchor="middle">the floating button re-clamps on rotation &amp; resizes</text>
</svg>