<svg xmlns="http://www.w3.org/2000/svg" viewBox="0 0 1100 600" font-family="-apple-system, BlinkMacSystemFont, 'Segoe UI', Helvetica, Arial, sans-serif">
<text x="24" y="28" font-size="17" font-weight="700" fill="#1f2328">Net cost of always-on recording — 10-minute soaks, worst-case screen load</text>
<text x="286" y="52" font-size="13" font-weight="600" fill="#818b98" text-anchor="middle">● Recording OFF (10 min)</text>
<text x="812" y="52" font-size="13" font-weight="600" fill="#e8702a" text-anchor="middle">● Recording ON (10 min)</text>
<text x="24" y="78" font-size="13" font-weight="600" fill="#59636e">Memory (MB)</text>
<text x="1076" y="78" font-size="13" font-weight="700" fill="#e8702a" text-anchor="end">+17 MB — flat, no leak</text>
<line x1="24" y1="172" x2="1076" y2="172" stroke="#d1d9e0" stroke-width="1"/>
<line x1="24" y1="86" x2="1076" y2="86" stroke="#d1d9e0" stroke-width="1"/>
<text x="26" y="97" font-size="10" fill="#59636e">110</text>
<text x="26" y="169" font-size="10" fill="#59636e">0</text>
<line x1="548.7" y1="86" x2="548.7" y2="172" stroke="#8c959f" stroke-width="1" stroke-dasharray="4 4"/>
<polyline points="24.0,112.6 24.9,112.9 25.8,113.1 26.7,113.4 27.6,113.8 28.5,113.8 29.4,113.8 30.2,113.8 31.1,113.8 32.0,113.4 32.9,112.4 33.8,111.8 34.7,111.8 35.6,111.8 36.5,112.2 37.4,113.1 38.3,113.8 39.2,112.8 40.1,112.2 41.0,111.9 41.8,111.9 42.7,111.6 43.6,112.5 44.5,113.2 45.4,113.4 46.3,113.4 47.2,113.8 48.1,113.8 49.0,113.8 49.9,113.8 50.8,113.8 51.7,113.8 52.6,113.8 53.4,113.8 54.3,113.8 55.2,113.8 56.1,113.8 57.0,113.8 57.9,113.8 58.8,113.8 59.7,113.8 60.6,113.7 61.5,113.7 62.4,113.7 63.3,113.7 64.2,113.7 65.0,113.7 65.9,113.7 66.8,113.5 67.7,113.5 68.6,113.5 69.5,113.5 70.4,113.5 71.3,113.7 72.2,113.7 73.1,113.7 74.0,113.7 74.9,113.7 75.8,113.3 76.6,113.3 77.5,113.1 78.4,113.1 79.3,113.1 80.2,113.5 81.1,113.5 82.0,113.7 82.9,113.7 83.8,113.7 84.7,113.5 85.6,113.5 86.5,113.5 87.4,113.5 88.2,113.5 89.1,113.5 90.0,113.2 90.9,113.2 91.8,113.2 92.7,113.2 93.6,113.0 94.5,113.0 95.4,113.0 96.3,113.0 97.2,112.7 98.1,113.0 99.0,113.4 99.8,113.0 100.7,112.7 101.6,112.8 102.5,112.4 103.4,112.1 104.3,112.4 105.2,112.8 106.1,112.7 107.0,113.0 107.9,113.0 108.8,112.7 109.7,112.3 110.6,112.3 111.4,112.0 112.3,112.0 113.2,112.0 114.1,112.0 115.0,112.0 115.9,112.0 116.8,112.0 117.7,112.0 118.6,112.0 119.5,112.0 120.4,112.0 121.3,112.0 122.2,112.0 123.0,112.0 123.9,112.0 124.8,112.0 125.7,112.0 126.6,112.0 127.5,112.0 128.4,112.0 129.3,112.0 130.2,112.0 131.1,112.0 132.0,112.0 132.9,112.0 133.8,112.0 134.6,112.0 135.5,112.0 136.4,112.0 137.3,112.0 138.2,112.0 139.1,112.0 140.0,112.0 140.9,112.0 141.8,112.3 142.7,112.3 143.6,112.3 144.5,112.3 145.4,112.3 146.2,112.0 147.1,112.0 148.0,112.0 148.9,112.0 149.8,112.0 150.7,112.0 151.6,112.0 152.5,112.0 153.4,112.0 154.3,112.0 155.2,112.0 156.1,112.0 157.0,111.9 157.8,111.9 158.7,111.9 159.6,111.9 160.5,111.9 161.4,111.9 162.3,111.9 163.2,111.9 164.1,111.9 165.0,111.9 165.9,111.9 166.8,111.9 167.7,111.9 168.6,111.9 169.4,111.9 170.3,111.9 171.2,111.9 172.1,111.9 173.0,111.9 173.9,111.9 174.8,111.9 175.7,111.8 176.6,111.8 177.5,111.8 178.4,111.8 179.3,111.8 180.1,111.8 181.0,111.8 181.9,111.8 182.8,111.8 183.7,111.8 184.6,111.8 185.5,111.8 186.4,111.8 187.3,111.8 188.2,111.8 189.1,111.8 190.0,111.8 190.9,111.2 191.7,111.2 192.6,111.2 193.5,111.2 194.4,111.2 195.3,111.8 196.2,111.8 197.1,111.8 198.0,111.8 198.9,111.8 199.8,111.8 200.7,111.8 201.6,111.8 202.5,111.8 203.3,111.8 204.2,111.8 205.1,111.8 206.0,111.8 206.9,111.8 207.8,111.8 208.7,111.8 209.6,111.8 210.5,111.8 211.4,111.8 212.3,111.8 213.2,111.8 214.1,111.8 214.9,111.8 215.8,111.8 216.7,111.8 217.6,111.8 218.5,111.8 219.4,111.8 220.3,111.8 221.2,111.8 222.1,111.8 223.0,111.8 223.9,111.8 224.8,111.8 225.7,111.8 226.5,111.8 227.4,111.8 228.3,111.8 229.2,111.8 230.1,111.8 231.0,111.8 231.9,111.8 232.8,111.8 233.7,111.8 234.6,111.8 235.5,111.8 236.4,111.8 237.3,111.8 238.1,111.8 239.0,111.8 239.9,111.8 240.8,111.8 241.7,111.8 242.6,111.8 243.5,111.8 244.4,111.8 245.3,111.8 246.2,111.8 247.1,111.8 248.0,111.8 248.9,111.8 249.7,111.8 250.6,111.8 251.5,111.8 252.4,111.7 253.3,111.7 254.2,111.8 255.1,111.8 256.0,111.8 256.9,111.8 257.8,111.8 258.7,111.8 259.6,111.8 260.5,111.8 261.3,111.8 262.2,111.8 263.1,111.7 264.0,111.7 264.9,111.7 265.8,111.8 266.7,111.8 267.6,111.8 268.5,111.8 269.4,111.8 270.3,111.8 271.2,111.8 272.1,111.8 272.9,111.9 273.8,111.9 274.7,111.9 275.6,111.9 276.5,111.9 277.4,111.9 278.3,111.9 279.2,111.9 280.1,111.9 281.0,111.9 281.9,111.9 282.8,111.9 283.7,111.9 284.5,111.9 285.4,112.2 286.3,112.2 287.2,112.2 288.1,112.2 289.0,112.2 289.9,111.9 290.8,111.9 291.7,111.9 292.6,111.9 293.5,111.9 294.4,111.9 295.3,111.9 296.1,111.9 297.0,111.9 297.9,111.9 298.8,111.9 299.7,111.9 300.6,111.9 301.5,111.9 302.4,111.9 303.3,111.9 304.2,111.9 305.1,111.9 306.0,111.9 306.9,111.9 307.7,111.9 308.6,111.8 309.5,111.8 310.4,111.8 311.3,111.8 312.2,111.8 313.1,111.8 314.0,111.8 314.9,111.8 315.8,111.8 316.7,111.8 317.6,111.8 318.5,111.8 319.3,112.1 320.2,112.1 321.1,112.1 322.0,112.1 322.9,112.1 323.8,111.8 324.7,111.8 325.6,111.8 326.5,111.8 327.4,111.8 328.3,111.8 329.2,111.8 330.1,111.8 330.9,111.8 331.8,111.8 332.7,111.8 333.6,111.8 334.5,111.8 335.4,111.8 336.3,111.8 337.2,111.8 338.1,111.8 339.0,111.8 339.9,111.8 340.8,111.8 341.7,111.8 342.5,111.8 343.4,111.8 344.3,111.8 345.2,111.8 346.1,111.8 347.0,111.1 347.9,111.1 348.8,111.1 349.7,111.0 350.6,111.0 351.5,111.6 352.4,111.6 353.3,111.6 354.1,111.6 355.0,111.6 355.9,111.6 356.8,111.7 357.7,111.7 358.6,111.7 359.5,111.7 360.4,111.7 361.3,111.7 362.2,111.7 363.1,111.6 364.0,111.6 364.9,111.6 365.7,111.6 366.6,111.6 367.5,111.6 368.4,111.6 369.3,111.6 370.2,111.6 371.1,111.6 372.0,111.6 372.9,111.6 373.8,111.6 374.7,111.6 375.6,111.6 376.5,111.6 377.3,111.6 378.2,111.6 379.1,111.9 380.0,111.9 380.9,111.9 381.8,111.9 382.7,111.9 383.6,111.6 384.5,111.6 385.4,111.6 386.3,111.6 387.2,111.6 388.1,111.6 388.9,111.6 389.8,111.6 390.7,111.6 391.6,111.6 392.5,111.6 393.4,111.6 394.3,111.6 395.2,111.6 396.1,111.6 397.0,111.7 397.9,111.7 398.8,111.8 399.7,111.8 400.5,111.8 401.4,111.8 402.3,111.8 403.2,111.8 404.1,111.8 405.0,111.8 405.9,111.8 406.8,111.8 407.7,111.8 408.6,111.8 409.5,111.8 410.4,111.8 411.3,111.8 412.1,111.8 413.0,111.8 413.9,111.8 414.8,111.8 415.7,111.8 416.6,111.8 417.5,111.8 418.4,111.8 419.3,111.8 420.2,111.8 421.1,111.8 422.0,111.8 422.9,111.8 423.7,111.8 424.6,111.8 425.5,111.8 426.4,111.8 427.3,111.8 428.2,111.8 429.1,111.8 430.0,111.8 430.9,111.8 431.8,111.8 432.7,111.8 433.6,111.8 434.5,111.8 435.3,111.8 436.2,111.8 437.1,111.8 438.0,111.8 438.9,111.8 439.8,111.8 440.7,111.8 441.6,111.8 442.5,111.8 443.4,111.8 444.3,111.8 445.2,111.8 446.1,111.8 446.9,111.8 447.8,111.8 448.7,111.8 449.6,111.8 450.5,111.2 451.4,111.2 452.3,111.2 453.2,111.2 454.1,111.2 455.0,111.8 455.9,111.8 456.8,111.8 457.7,111.8 458.5,111.8 459.4,111.8 460.3,111.8 461.2,111.8 462.1,111.8 463.0,111.8 463.9,111.8 464.8,111.8 465.7,111.8 466.6,111.8 467.5,111.2 468.4,110.5 469.3,110.5 470.1,110.5 471.0,110.5 471.9,111.2 472.8,111.8 473.7,111.8 474.6,111.8 475.5,111.8 476.4,111.8 477.3,111.8 478.2,111.8 479.1,111.8 480.0,111.8 480.9,111.8 481.7,111.8 482.6,111.8 483.5,111.8 484.4,111.8 485.3,111.8 486.2,111.8 487.1,111.9 488.0,111.9 488.9,111.9 489.8,111.9 490.7,112.0 491.6,112.0 492.4,112.0 493.3,112.0 494.2,112.0 495.1,112.0 496.0,112.0 496.9,112.0 497.8,112.0 498.7,112.0 499.6,112.0 500.5,112.0 501.4,112.0 502.3,112.0 503.2,112.0 504.0,111.3 504.9,111.3 505.8,111.3 506.7,111.3 507.6,111.3 508.5,112.0 509.4,112.0 510.3,112.0 511.2,112.0 512.1,112.0 513.0,112.0 513.9,112.0 514.8,112.0 515.6,112.0 516.5,112.0 517.4,112.0 518.3,112.0 519.2,112.0 520.1,112.0 521.0,112.0 521.9,112.0 522.8,112.0 523.7,112.0 524.6,112.0 525.5,112.0 526.4,112.0 527.2,112.0 528.1,112.0 529.0,112.0 529.9,112.0 530.8,112.0 531.7,112.0 532.6,112.0 533.5,112.0 534.4,112.0 535.3,112.0 536.2,112.0 537.1,112.0 538.0,112.0 538.8,112.0 539.7,112.0 540.6,112.3 541.5,112.3 542.4,112.3 543.3,112.3 544.2,112.3 545.1,112.0 546.0,112.0 546.9,112.0 547.8,112.0 548.7,112.0" fill="none" stroke="#818b98" stroke-width="2" stroke-linejoin="round"/>
<text x="541" y="132" font-size="12" font-weight="700" fill="#818b98" text-anchor="end">77 MB</text>
<polyline points="548.7,99.4 549.6,99.2 550.4,99.0 551.3,99.1 552.2,98.8 553.1,99.0 554.0,99.0 554.9,99.0 555.8,99.3 556.7,99.3 557.6,99.2 558.5,99.2 559.4,99.2 560.3,98.9 561.2,98.5 562.0,98.5 562.9,98.5 563.8,98.5 564.7,98.5 565.6,98.5 566.5,98.5 567.4,98.5 568.3,98.1 569.2,98.1 570.1,97.7 571.0,97.7 571.9,97.7 572.8,97.7 573.6,97.7 574.5,98.5 575.4,98.5 576.3,98.5 577.2,98.9 578.1,98.9 579.0,98.5 579.9,98.5 580.8,98.5 581.7,98.9 582.6,98.9 583.5,98.9 584.4,98.9 585.2,99.2 586.1,98.5 587.0,98.5 587.9,98.4 588.8,98.8 589.7,98.5 590.6,98.9 591.5,98.9 592.4,99.0 593.3,98.6 594.2,98.5 595.1,98.5 596.0,98.9 596.8,98.9 597.7,98.9 598.6,98.9 599.5,99.6 600.4,99.2 601.3,98.9 602.2,98.9 603.1,98.9 604.0,98.1 604.9,98.1 605.8,98.5 606.7,98.5 607.6,98.1 608.4,98.1 609.3,98.1 610.2,98.1 611.1,98.5 612.0,98.9 612.9,99.2 613.8,98.8 614.7,98.8 615.6,98.8 616.5,98.8 617.4,98.1 618.3,98.1 619.2,98.1 620.0,97.9 620.9,97.9 621.8,98.3 622.7,98.7 623.6,99.0 624.5,98.5 625.4,98.5 626.3,98.1 627.2,98.8 628.1,98.8 629.0,99.1 629.9,99.1 630.8,99.5 631.6,98.9 632.5,98.5 633.4,98.5 634.3,98.5 635.2,98.5 636.1,98.5 637.0,98.9 637.9,98.9 638.8,98.9 639.7,98.9 640.6,99.2 641.5,98.9 642.4,98.9 643.2,98.9 644.1,98.9 645.0,98.5 645.9,98.5 646.8,98.5 647.7,99.1 648.6,99.5 649.5,99.5 650.4,99.5 651.3,99.5 652.2,98.9 653.1,98.5 654.0,98.5 654.8,98.5 655.7,98.9 656.6,98.9 657.5,98.8 658.4,98.8 659.3,98.8 660.2,98.4 661.1,98.4 662.0,98.4 662.9,98.4 663.8,98.4 664.7,98.1 665.6,98.1 666.4,98.1 667.3,98.1 668.2,98.1 669.1,98.4 670.0,98.4 670.9,98.4 671.8,98.4 672.7,98.4 673.6,98.4 674.5,98.4 675.4,98.4 676.3,99.1 677.2,99.1 678.0,99.1 678.9,99.1 679.8,99.1 680.7,98.4 681.6,98.4 682.5,98.4 683.4,98.4 684.3,98.4 685.2,98.4 686.1,98.4 687.0,98.4 687.9,98.4 688.8,98.8 689.6,98.7 690.5,98.7 691.4,98.7 692.3,98.7 693.2,98.4 694.1,98.4 695.0,98.4 695.9,98.4 696.8,98.0 697.7,98.0 698.6,97.6 699.5,98.3 700.4,98.3 701.2,98.7 702.1,98.3 703.0,98.6 703.9,98.0 704.8,98.0 705.7,98.0 706.6,98.4 707.5,98.4 708.4,98.4 709.3,98.0 710.2,98.0 711.1,98.0 712.0,98.0 712.8,98.0 713.7,98.4 714.6,98.4 715.5,98.4 716.4,99.1 717.3,99.1 718.2,99.1 719.1,99.0 720.0,99.0 720.9,98.4 721.8,98.4 722.7,98.4 723.6,98.4 724.4,98.4 725.3,98.0 726.2,98.0 727.1,98.0 728.0,98.3 728.9,98.3 729.8,98.7 730.7,98.7 731.6,98.7 732.5,98.4 733.4,98.4 734.3,98.4 735.1,98.4 736.0,98.4 736.9,98.4 737.8,98.4 738.7,98.4 739.6,98.4 740.5,98.6 741.4,98.6 742.3,98.2 743.2,97.8 744.1,97.8 745.0,97.6 745.9,97.5 746.7,97.9 747.6,98.3 748.5,98.3 749.4,98.3 750.3,98.3 751.2,98.3 752.1,98.4 753.0,99.0 753.9,99.0 754.8,99.0 755.7,99.0 756.6,99.0 757.5,98.4 758.3,98.4 759.2,98.0 760.1,98.0 761.0,98.0 761.9,98.0 762.8,98.0 763.7,98.4 764.6,98.4 765.5,98.4 766.4,98.4 767.3,98.4 768.2,98.4 769.1,98.4 769.9,98.4 770.8,98.0 771.7,98.0 772.6,98.0 773.5,98.0 774.4,98.0 775.3,98.4 776.2,98.4 777.1,98.0 778.0,98.0 778.9,98.0 779.8,98.0 780.7,98.0 781.5,98.4 782.4,98.4 783.3,98.0 784.2,98.0 785.1,98.0 786.0,98.0 786.9,98.0 787.8,98.4 788.7,98.4 789.6,98.4 790.5,98.4 791.4,98.4 792.3,98.4 793.1,98.4 794.0,98.4 794.9,98.4 795.8,98.4 796.7,98.4 797.6,98.4 798.5,98.4 799.4,98.0 800.3,98.6 801.2,98.6 802.1,98.2 803.0,98.2 803.9,98.6 804.7,98.0 805.6,98.0 806.5,98.4 807.4,98.4 808.3,98.4 809.2,98.4 810.1,98.4 811.0,99.0 811.9,99.0 812.8,99.0 813.7,99.0 814.6,99.0 815.5,98.4 816.3,98.4 817.2,98.4 818.1,98.4 819.0,98.4 819.9,98.4 820.8,98.4 821.7,98.4 822.6,98.4 823.5,98.4 824.4,98.4 825.3,98.4 826.2,98.4 827.1,98.4 827.9,98.4 828.8,98.4 829.7,98.4 830.6,98.4 831.5,98.4 832.4,98.4 833.3,98.4 834.2,98.4 835.1,98.4 836.0,98.4 836.9,98.4 837.8,98.4 838.7,98.4 839.5,98.4 840.4,98.4 841.3,98.4 842.2,98.4 843.1,98.4 844.0,98.4 844.9,98.4 845.8,98.4 846.7,98.0 847.6,98.0 848.5,97.6 849.4,97.6 850.3,97.6 851.1,98.0 852.0,98.0 852.9,98.4 853.8,98.4 854.7,98.4 855.6,98.4 856.5,98.4 857.4,98.3 858.3,98.3 859.2,98.3 860.1,97.9 861.0,97.9 861.9,98.0 862.7,98.6 863.6,98.6 864.5,98.6 865.4,98.6 866.3,98.6 867.2,97.9 868.1,97.9 869.0,98.3 869.9,98.3 870.8,98.3 871.7,98.3 872.6,98.3 873.5,98.3 874.3,97.9 875.2,97.9 876.1,97.9 877.0,97.9 877.9,98.0 878.8,98.4 879.7,98.0 880.6,98.0 881.5,98.0 882.4,98.0 883.3,98.0 884.2,98.4 885.1,98.4 885.9,98.4 886.8,98.4 887.7,98.4 888.6,98.4 889.5,98.4 890.4,98.4 891.3,98.4 892.2,98.4 893.1,98.4 894.0,98.4 894.9,98.4 895.8,98.0 896.7,98.0 897.5,98.0 898.4,97.6 899.3,97.2 900.2,97.6 901.1,97.6 902.0,97.6 902.9,98.0 903.8,98.4 904.7,98.4 905.6,98.4 906.5,98.4 907.4,98.4 908.3,98.4 909.1,98.4 910.0,98.4 910.9,98.4 911.8,98.4 912.7,98.4 913.6,98.4 914.5,98.4 915.4,98.4 916.3,99.0 917.2,99.0 918.1,99.0 919.0,99.0 919.9,99.0 920.7,98.4 921.6,98.0 922.5,98.0 923.4,98.0 924.3,97.6 925.2,97.6 926.1,98.0 927.0,98.0 927.9,97.6 928.8,98.0 929.7,98.0 930.6,98.6 931.5,98.6 932.3,98.6 933.2,98.6 934.1,98.6 935.0,97.9 935.9,97.6 936.8,97.6 937.7,97.5 938.6,97.5 939.5,97.5 940.4,97.9 941.3,98.3 942.2,98.3 943.1,98.3 943.9,98.3 944.8,98.3 945.7,98.3 946.6,98.3 947.5,98.3 948.4,97.9 949.3,97.9 950.2,97.9 951.1,97.9 952.0,97.9 952.9,98.3 953.8,98.3 954.7,98.3 955.5,98.3 956.4,98.3 957.3,98.3 958.2,98.3 959.1,98.3 960.0,98.3 960.9,98.3 961.8,98.3 962.7,98.3 963.6,97.9 964.5,97.9 965.4,97.9 966.2,97.9 967.1,97.9 968.0,98.3 968.9,97.9 969.8,97.9 970.7,97.9 971.6,97.9 972.5,97.9 973.4,98.3 974.3,98.3 975.2,97.9 976.1,97.9 977.0,98.5 977.8,98.5 978.7,98.5 979.6,98.5 980.5,98.5 981.4,97.9 982.3,97.9 983.2,97.9 984.1,98.3 985.0,98.3 985.9,98.3 986.8,98.3 987.7,98.3 988.6,98.3 989.4,98.3 990.3,98.3 991.2,98.3 992.1,98.3 993.0,97.9 993.9,97.9 994.8,97.9 995.7,97.9 996.6,97.9 997.5,98.3 998.4,98.3 999.3,98.3 1000.2,98.3 1001.0,98.3 1001.9,98.9 1002.8,98.9 1003.7,98.9 1004.6,98.9 1005.5,98.9 1006.4,98.3 1007.3,98.3 1008.2,98.3 1009.1,98.9 1010.0,98.9 1010.9,99.0 1011.8,99.0 1012.6,99.0 1013.5,98.4 1014.4,98.4 1015.3,98.4 1016.2,98.4 1017.1,98.4 1018.0,98.4 1018.9,98.4 1019.8,98.4 1020.7,98.4 1021.6,98.4 1022.5,98.4 1023.4,98.4 1024.2,98.4 1025.1,98.4 1026.0,98.4 1026.9,98.4 1027.8,98.4 1028.7,98.4 1029.6,98.4 1030.5,98.4 1031.4,98.4 1032.3,98.0 1033.2,98.0 1034.1,98.0 1035.0,98.0 1035.8,98.0 1036.7,98.4 1037.6,98.4 1038.5,98.0 1039.4,98.0 1040.3,98.0 1041.2,98.0 1042.1,98.0 1043.0,98.4 1043.9,98.4 1044.8,98.0 1045.7,98.0 1046.6,98.0 1047.4,97.6 1048.3,97.6 1049.2,98.0 1050.1,98.0 1051.0,98.0 1051.9,98.4 1052.8,98.4 1053.7,98.4 1054.6,98.4 1055.5,98.4 1056.4,98.4 1057.3,98.4 1058.2,98.4 1059.0,98.4 1059.9,98.4 1060.8,98.4 1061.7,98.4 1062.6,98.4 1063.5,98.4 1064.4,98.4 1065.3,98.4 1066.2,98.4 1067.1,98.4 1068.0,98.4 1068.9,98.4 1069.8,98.4 1070.6,98.4 1071.5,98.4 1072.4,98.4 1073.3,98.4 1074.2,98.4 1075.1,98.4 1076.0,98.4" fill="none" stroke="#e8702a" stroke-width="2" stroke-linejoin="round"/>
<text x="1068" y="118" font-size="12" font-weight="700" fill="#e8702a" text-anchor="end">94 MB</text>
<text x="24" y="204" font-size="13" font-weight="600" fill="#59636e">CPU (% of one core)</text>
<text x="1076" y="204" font-size="13" font-weight="700" fill="#e8702a" text-anchor="end">+6.7 %</text>
<line x1="24" y1="298" x2="1076" y2="298" stroke="#d1d9e0" stroke-width="1"/>
<line x1="24" y1="212" x2="1076" y2="212" stroke="#d1d9e0" stroke-width="1"/>
<text x="26" y="223" font-size="10" fill="#59636e">35</text>
<text x="26" y="295" font-size="10" fill="#59636e">0</text>
<line x1="548.7" y1="212" x2="548.7" y2="298" stroke="#8c959f" stroke-width="1" stroke-dasharray="4 4"/>
<polyline points="24.0,268.1 24.9,268.5 25.8,268.5 26.7,269.4 27.6,268.2 28.5,267.0 29.4,266.0 30.2,265.3 31.1,264.4 32.0,266.6 32.9,268.3 33.8,268.4 34.7,268.4 35.6,268.8 36.5,267.5 37.4,265.9 38.3,266.2 39.2,265.9 40.1,266.0 41.0,265.2 41.8,264.1 42.7,263.8 43.6,264.3 44.5,264.7 45.4,265.5 46.3,266.7 47.2,267.4 48.1,267.3 49.0,267.0 49.9,266.7 50.8,266.1 51.7,264.5 52.6,263.8 53.4,262.7 54.3,262.5 55.2,263.9 56.1,265.9 57.0,266.6 57.9,267.6 58.8,268.3 59.7,267.6 60.6,267.1 61.5,266.5 62.4,266.5 63.3,266.0 64.2,265.4 65.0,264.9 65.9,265.7 66.8,265.9 67.7,266.3 68.6,267.1 69.5,267.6 70.4,267.5 71.3,267.3 72.2,266.5 73.1,265.7 74.0,265.7 74.9,265.1 75.8,264.7 76.6,265.6 77.5,266.4 78.4,266.5 79.3,267.1 80.2,267.7 81.1,267.7 82.0,267.5 82.9,267.3 83.8,266.2 84.7,266.7 85.6,266.7 86.5,265.8 87.4,265.8 88.2,267.0 89.1,266.9 90.0,267.2 90.9,268.3 91.8,268.5 92.7,268.5 93.6,268.4 94.5,267.7 95.4,266.7 96.3,265.4 97.2,265.2 98.1,264.7 99.0,265.3 99.8,266.4 100.7,268.1 101.6,268.1 102.5,268.0 103.4,267.8 104.3,267.6 105.2,267.4 106.1,267.3 107.0,266.8 107.9,266.6 108.8,266.0 109.7,265.9 110.6,266.2 111.4,267.0 112.3,267.3 113.2,267.9 114.1,268.0 115.0,267.8 115.9,267.6 116.8,266.1 117.7,265.1 118.6,264.5 119.5,263.9 120.4,263.6 121.3,265.0 122.2,266.1 123.0,266.5 123.9,267.2 124.8,267.5 125.7,267.7 126.6,267.9 127.5,267.8 128.4,267.3 129.3,267.0 130.2,267.3 131.1,266.9 132.0,267.2 132.9,268.1 133.8,268.9 134.6,268.9 135.5,269.3 136.4,269.2 137.3,269.0 138.2,268.6 139.1,267.1 140.0,266.2 140.9,264.6 141.8,264.0 142.7,263.5 143.6,264.9 144.5,265.8 145.4,267.4 146.2,267.7 147.1,268.3 148.0,267.6 148.9,267.4 149.8,266.9 150.7,266.2 151.6,266.1 152.5,265.9 153.4,266.3 154.3,266.8 155.2,267.8 156.1,268.0 157.0,268.4 157.8,268.2 158.7,268.1 159.6,267.2 160.5,266.2 161.4,265.1 162.3,263.6 163.2,262.5 164.1,263.0 165.0,263.9 165.9,265.1 166.8,266.6 167.7,267.6 168.6,267.8 169.4,268.1 170.3,268.4 171.2,268.8 172.1,268.5 173.0,267.6 173.9,266.5 174.8,265.8 175.7,265.9 176.6,266.4 177.5,267.1 178.4,267.9 179.3,268.3 180.1,268.1 181.0,267.7 181.9,267.7 182.8,267.0 183.7,267.0 184.6,266.0 185.5,264.4 186.4,263.7 187.3,264.4 188.2,264.1 189.1,265.1 190.0,266.7 190.9,267.6 191.7,267.8 192.6,268.4 193.5,267.9 194.4,267.9 195.3,267.5 196.2,267.0 197.1,266.6 198.0,267.1 198.9,267.6 199.8,267.9 200.7,268.6 201.6,268.8 202.5,268.8 203.3,268.0 204.2,268.1 205.1,267.4 206.0,266.6 206.9,266.5 207.8,265.8 208.7,265.0 209.6,265.0 210.5,265.7 211.4,266.0 212.3,266.8 213.2,267.7 214.1,268.4 214.9,268.2 215.8,267.4 216.7,266.3 217.6,265.8 218.5,264.9 219.4,264.9 220.3,265.9 221.2,267.3 222.1,267.6 223.0,268.2 223.9,268.5 224.8,268.3 225.7,268.1 226.5,268.0 227.4,267.9 228.3,267.6 229.2,266.9 230.1,266.4 231.0,266.3 231.9,266.6 232.8,266.8 233.7,267.4 234.6,267.8 235.5,267.9 236.4,267.7 237.3,267.8 238.1,267.3 239.0,267.3 239.9,266.9 240.8,267.2 241.7,267.1 242.6,267.8 243.5,268.2 244.4,269.1 245.3,269.3 246.2,269.5 247.1,269.2 248.0,268.7 248.9,268.5 249.7,267.5 250.6,266.0 251.5,264.3 252.4,264.1 253.3,264.4 254.2,265.4 255.1,267.2 256.0,269.1 256.9,269.9 257.8,269.9 258.7,270.1 259.6,269.8 260.5,269.4 261.3,268.9 262.2,267.6 263.1,266.4 264.0,265.5 264.9,265.9 265.8,266.4 266.7,267.7 267.6,269.1 268.5,270.1 269.4,270.1 270.3,269.9 271.2,269.5 272.1,267.8 272.9,267.0 273.8,266.2 274.7,264.8 275.6,264.0 276.5,265.3 277.4,265.8 278.3,266.8 279.2,268.3 280.1,269.3 281.0,269.6 281.9,270.0 282.8,269.1 283.7,267.7 284.5,268.5 285.4,269.5 286.3,269.0 287.2,269.5 288.1,270.8 289.0,269.9 289.9,268.5 290.8,268.1 291.7,268.1 292.6,267.9 293.5,266.9 294.4,266.6 295.3,266.4 296.1,265.8 297.0,266.0 297.9,266.5 298.8,266.9 299.7,267.3 300.6,267.8 301.5,267.7 302.4,267.9 303.3,268.3 304.2,268.0 305.1,268.4 306.0,267.8 306.9,267.7 307.7,267.2 308.6,267.3 309.5,267.7 310.4,270.3 311.3,271.9 312.2,273.3 313.1,274.9 314.0,273.6 314.9,271.2 315.8,269.0 316.7,267.6 317.6,265.1 318.5,264.7 319.3,264.0 320.2,264.3 321.1,264.7 322.0,265.7 322.9,266.5 323.8,267.7 324.7,268.2 325.6,267.2 326.5,266.5 327.4,265.8 328.3,264.0 329.2,262.6 330.1,262.5 330.9,263.5 331.8,264.6 332.7,266.4 333.6,268.1 334.5,269.0 335.4,269.2 336.3,268.7 337.2,268.2 338.1,267.2 339.0,266.5 339.9,267.4 340.8,268.7 341.7,271.0 342.5,272.7 343.4,274.0 344.3,272.9 345.2,272.1 346.1,270.0 347.0,268.5 347.9,269.2 348.8,268.9 349.7,268.0 350.6,267.3 351.5,267.2 352.4,266.2 353.3,268.2 354.1,269.3 355.0,270.2 355.9,271.1 356.8,271.1 357.7,269.3 358.6,268.7 359.5,267.5 360.4,266.0 361.3,264.4 362.2,263.8 363.1,263.3 364.0,264.0 364.9,265.1 365.7,266.1 366.6,266.3 367.5,267.0 368.4,266.4 369.3,266.2 370.2,265.5 371.1,264.8 372.0,262.7 372.9,262.8 373.8,262.9 374.7,263.6 375.6,264.2 376.5,266.2 377.3,266.6 378.2,266.6 379.1,266.8 380.0,266.9 380.9,267.1 381.8,266.5 382.7,266.5 383.6,265.5 384.5,264.8 385.4,264.2 386.3,265.0 387.2,265.5 388.1,267.3 388.9,268.7 389.8,269.5 390.7,270.2 391.6,270.1 392.5,269.8 393.4,269.5 394.3,268.2 395.2,267.1 396.1,266.1 397.0,265.8 397.9,266.1 398.8,267.3 399.7,268.1 400.5,269.3 401.4,269.6 402.3,269.5 403.2,269.1 404.1,268.0 405.0,266.4 405.9,265.7 406.8,264.4 407.7,263.8 408.6,264.4 409.5,265.5 410.4,265.9 411.3,266.5 412.1,266.9 413.0,267.1 413.9,267.3 414.8,267.0 415.7,267.2 416.6,266.7 417.5,265.9 418.4,265.6 419.3,265.5 420.2,265.9 421.1,266.9 422.0,268.1 422.9,268.1 423.7,268.5 424.6,268.4 425.5,267.7 426.4,267.2 427.3,267.2 428.2,266.5 429.1,266.2 430.0,265.6 430.9,266.3 431.8,266.7 432.7,267.7 433.6,268.4 434.5,269.7 435.3,269.7 436.2,269.8 437.1,269.9 438.0,269.2 438.9,268.1 439.8,266.8 440.7,265.8 441.6,265.4 442.5,265.6 443.4,266.1 444.3,266.9 445.2,267.5 446.1,267.5 446.9,267.2 447.8,266.3 448.7,264.8 449.6,264.4 450.5,263.6 451.4,263.6 452.3,264.0 453.2,265.4 454.1,265.8 455.0,266.5 455.9,266.5 456.8,266.8 457.7,267.1 458.5,267.4 459.4,267.6 460.3,267.1 461.2,266.9 462.1,266.3 463.0,266.7 463.9,266.8 464.8,267.7 465.7,269.0 466.6,270.2 467.5,270.2 468.4,269.7 469.3,269.2 470.1,268.8 471.0,268.2 471.9,266.6 472.8,266.7 473.7,267.0 474.6,266.3 475.5,266.5 476.4,267.1 477.3,267.3 478.2,269.5 479.1,269.6 480.0,269.2 480.9,269.9 481.7,270.2 482.6,267.8 483.5,267.4 484.4,266.8 485.3,265.5 486.2,265.0 487.1,266.0 488.0,266.6 488.9,267.5 489.8,268.2 490.7,267.9 491.6,267.3 492.4,267.4 493.3,267.4 494.2,267.6 495.1,267.7 496.0,268.0 496.9,267.9 497.8,268.2 498.7,268.4 499.6,269.1 500.5,268.7 501.4,268.3 502.3,268.2 503.2,268.2 504.0,267.5 504.9,266.9 505.8,266.4 506.7,265.6 507.6,265.7 508.5,266.4 509.4,267.2 510.3,267.9 511.2,268.2 512.1,267.8 513.0,267.0 513.9,266.8 514.8,266.6 515.6,265.6 516.5,264.6 517.4,263.9 518.3,263.8 519.2,263.5 520.1,264.2 521.0,265.6 521.9,267.1 522.8,267.5 523.7,268.1 524.6,268.7 525.5,268.6 526.4,267.8 527.2,267.4 528.1,267.2 529.0,266.1 529.9,265.9 530.8,266.0 531.7,266.5 532.6,266.8 533.5,267.9 534.4,267.9 535.3,268.6 536.2,268.5 537.1,268.4 538.0,268.0 538.8,267.4 539.7,266.7 540.6,266.0 541.5,266.0 542.4,266.2 543.3,266.4 544.2,266.4 545.1,266.6 546.0,266.4 546.9,266.7 547.8,266.7 548.7,267.2" fill="none" stroke="#818b98" stroke-width="2" stroke-linejoin="round"/>
<text x="541" y="259" font-size="12" font-weight="700" fill="#818b98" text-anchor="end">12.5 %</text>
<polyline points="548.7,250.0 549.6,250.8 550.4,250.4 551.3,252.8 552.2,253.7 553.1,250.7 554.0,249.9 554.9,250.1 555.8,248.6 556.7,247.5 557.6,246.6 558.5,246.0 559.4,245.3 560.3,246.4 561.2,246.6 562.0,247.6 562.9,248.1 563.8,248.7 564.7,248.6 565.6,247.9 566.5,246.7 567.4,245.8 568.3,245.6 569.2,245.7 570.1,246.5 571.0,247.5 571.9,248.8 572.8,248.6 573.6,248.2 574.5,247.8 575.4,247.3 576.3,246.5 577.2,246.0 578.1,245.9 579.0,245.7 579.9,245.6 580.8,246.4 581.7,247.3 582.6,247.7 583.5,248.4 584.4,249.1 585.2,248.8 586.1,248.9 587.0,249.8 587.9,250.5 588.8,250.4 589.7,250.6 590.6,250.3 591.5,249.1 592.4,247.5 593.3,247.9 594.2,247.2 595.1,247.4 596.0,248.4 596.8,249.2 597.7,249.2 598.6,249.6 599.5,249.3 600.4,248.4 601.3,247.2 602.2,245.9 603.1,245.5 604.0,245.2 604.9,245.6 605.8,246.8 606.7,248.1 607.6,249.0 608.4,248.8 609.3,248.7 610.2,248.3 611.1,247.9 612.0,246.1 612.9,245.7 613.8,245.1 614.7,246.0 615.6,246.5 616.5,248.6 617.4,250.2 618.3,251.5 619.2,251.1 620.0,251.8 620.9,251.8 621.8,251.8 622.7,250.0 623.6,249.2 624.5,248.1 625.4,248.1 626.3,248.5 627.2,250.1 628.1,251.4 629.0,252.1 629.9,252.1 630.8,251.2 631.6,249.8 632.5,249.2 633.4,248.1 634.3,247.5 635.2,247.1 636.1,248.4 637.0,248.9 637.9,250.0 638.8,249.8 639.7,251.4 640.6,252.1 641.5,253.0 642.4,253.6 643.2,254.1 644.1,253.6 645.0,252.8 645.9,251.5 646.8,250.7 647.7,250.5 648.6,250.6 649.5,251.3 650.4,251.6 651.3,252.1 652.2,252.4 653.1,252.3 654.0,251.9 654.8,251.7 655.7,251.5 656.6,251.0 657.5,250.7 658.4,250.8 659.3,251.6 660.2,251.1 661.1,251.6 662.0,252.1 662.9,252.2 663.8,252.0 664.7,252.1 665.6,251.9 666.4,252.0 667.3,251.3 668.2,250.8 669.1,250.9 670.0,251.1 670.9,251.5 671.8,251.9 672.7,252.3 673.6,252.0 674.5,252.3 675.4,251.7 676.3,252.4 677.2,252.0 678.0,252.3 678.9,251.6 679.8,250.9 680.7,249.9 681.6,250.6 682.5,251.0 683.4,251.5 684.3,252.3 685.2,253.0 686.1,253.4 687.0,253.6 687.9,254.0 688.8,254.4 689.6,254.3 690.5,253.4 691.4,253.7 692.3,253.3 693.2,253.5 694.1,253.4 695.0,253.7 695.9,252.7 696.8,253.1 697.7,252.4 698.6,253.0 699.5,252.6 700.4,252.8 701.2,252.6 702.1,251.9 703.0,250.4 703.9,251.1 704.8,251.4 705.7,251.4 706.6,251.7 707.5,252.9 708.4,252.1 709.3,252.1 710.2,251.5 711.1,251.2 712.0,250.1 712.8,250.6 713.7,249.6 714.6,250.2 715.5,250.8 716.4,252.0 717.3,252.3 718.2,253.0 719.1,253.4 720.0,253.2 720.9,252.6 721.8,251.6 722.7,251.5 723.6,251.1 724.4,251.2 725.3,251.1 726.2,252.0 727.1,252.1 728.0,252.6 728.9,252.9 729.8,252.7 730.7,252.4 731.6,251.8 732.5,251.3 733.4,250.1 734.3,249.5 735.1,249.0 736.0,249.6 736.9,247.8 737.8,248.1 738.7,248.8 739.6,248.8 740.5,248.4 741.4,250.0 742.3,250.4 743.2,250.2 744.1,249.8 745.0,249.7 745.9,249.4 746.7,248.8 747.6,249.1 748.5,250.1 749.4,250.7 750.3,252.4 751.2,253.5 752.1,254.2 753.0,254.4 753.9,254.0 754.8,253.1 755.7,252.0 756.6,251.1 757.5,251.4 758.3,251.8 759.2,252.3 760.1,253.7 761.0,253.8 761.9,253.4 762.8,253.5 763.7,252.8 764.6,251.8 765.5,252.1 766.4,251.3 767.3,250.5 768.2,249.4 769.1,249.5 769.9,248.9 770.8,249.2 771.7,249.0 772.6,249.6 773.5,249.7 774.4,250.3 775.3,250.4 776.2,251.2 777.1,251.3 778.0,250.8 778.9,250.5 779.8,250.2 780.7,249.9 781.5,250.3 782.4,251.5 783.3,252.5 784.2,253.3 785.1,253.7 786.0,254.1 786.9,253.4 787.8,253.3 788.7,253.0 789.6,251.7 790.5,250.8 791.4,250.1 792.3,249.1 793.1,248.7 794.0,249.6 794.9,249.8 795.8,250.0 796.7,250.6 797.6,251.1 798.5,251.3 799.4,250.3 800.3,251.1 801.2,251.2 802.1,250.6 803.0,250.9 803.9,252.6 804.7,253.0 805.6,253.3 806.5,254.0 807.4,254.2 808.3,254.0 809.2,252.9 810.1,252.0 811.0,251.0 811.9,249.8 812.8,248.4 813.7,247.9 814.6,248.6 815.5,248.7 816.3,249.0 817.2,250.2 818.1,251.5 819.0,251.4 819.9,252.1 820.8,252.6 821.7,252.3 822.6,251.6 823.5,250.4 824.4,249.1 825.3,248.4 826.2,248.1 827.1,248.0 827.9,249.0 828.8,249.8 829.7,250.2 830.6,249.9 831.5,250.7 832.4,251.1 833.3,250.7 834.2,250.2 835.1,249.9 836.0,250.0 836.9,250.3 837.8,251.4 838.7,252.7 839.5,253.8 840.4,253.6 841.3,253.4 842.2,253.0 843.1,252.5 844.0,251.5 844.9,251.2 845.8,249.8 846.7,249.0 847.6,248.2 848.5,248.8 849.4,248.6 850.3,249.7 851.1,250.4 852.0,250.8 852.9,250.8 853.8,251.0 854.7,250.8 855.6,250.2 856.5,250.0 857.4,249.4 858.3,248.8 859.2,248.7 860.1,249.4 861.0,249.6 861.9,250.7 862.7,251.5 863.6,251.3 864.5,250.7 865.4,250.4 866.3,249.2 867.2,248.3 868.1,247.6 869.0,247.2 869.9,248.9 870.8,249.8 871.7,250.9 872.6,252.0 873.5,253.0 874.3,251.6 875.2,251.4 876.1,251.3 877.0,251.6 877.9,251.3 878.8,250.7 879.7,250.5 880.6,249.7 881.5,249.9 882.4,250.3 883.3,250.5 884.2,251.3 885.1,251.9 885.9,251.4 886.8,251.3 887.7,252.0 888.6,251.6 889.5,251.2 890.4,250.6 891.3,250.0 892.2,249.8 893.1,250.1 894.0,251.5 894.9,252.4 895.8,253.7 896.7,254.3 897.5,254.6 898.4,253.9 899.3,254.0 900.2,253.3 901.1,251.8 902.0,250.2 902.9,249.6 903.8,248.2 904.7,247.7 905.6,248.3 906.5,248.8 907.4,249.6 908.3,251.0 909.1,251.7 910.0,252.3 910.9,252.9 911.8,252.7 912.7,252.0 913.6,251.4 914.5,250.2 915.4,250.0 916.3,249.9 917.2,250.4 918.1,251.0 919.0,252.4 919.9,253.1 920.7,253.2 921.6,253.2 922.5,252.5 923.4,251.6 924.3,250.1 925.2,249.3 926.1,248.3 927.0,248.8 927.9,249.7 928.8,251.1 929.7,251.9 930.6,253.0 931.5,253.0 932.3,252.7 933.2,251.8 934.1,250.6 935.0,249.4 935.9,247.9 936.8,247.2 937.7,246.8 938.6,247.5 939.5,248.4 940.4,249.5 941.3,249.9 942.2,250.5 943.1,250.4 943.9,250.3 944.8,249.5 945.7,249.1 946.6,249.3 947.5,249.2 948.4,249.0 949.3,249.1 950.2,249.8 951.1,250.2 952.0,250.7 952.9,250.5 953.8,250.8 954.7,250.4 955.5,249.7 956.4,248.7 957.3,248.2 958.2,248.1 959.1,247.7 960.0,247.7 960.9,248.0 961.8,248.9 962.7,249.1 963.6,249.3 964.5,249.5 965.4,251.5 966.2,252.1 967.1,252.1 968.0,252.2 968.9,252.1 969.8,250.8 970.7,250.2 971.6,250.7 972.5,250.8 973.4,251.1 974.3,250.4 975.2,250.4 976.1,250.2 977.0,250.3 977.8,250.9 978.7,250.9 979.6,250.7 980.5,250.8 981.4,251.2 982.3,251.7 983.2,252.6 984.1,252.8 985.0,252.6 985.9,252.3 986.8,251.4 987.7,251.2 988.6,250.3 989.4,251.0 990.3,251.1 991.2,251.5 992.1,251.6 993.0,253.2 993.9,253.1 994.8,253.6 995.7,254.1 996.6,254.8 997.5,253.9 998.4,253.0 999.3,252.3 1000.2,251.4 1001.0,251.0 1001.9,251.2 1002.8,251.5 1003.7,251.7 1004.6,252.1 1005.5,252.4 1006.4,252.6 1007.3,252.9 1008.2,253.1 1009.1,252.2 1010.0,251.1 1010.9,250.4 1011.8,249.9 1012.6,248.8 1013.5,248.4 1014.4,247.6 1015.3,248.5 1016.2,249.3 1017.1,250.2 1018.0,251.6 1018.9,253.1 1019.8,252.9 1020.7,252.9 1021.6,253.0 1022.5,251.8 1023.4,249.5 1024.2,247.6 1025.1,246.3 1026.0,245.5 1026.9,246.5 1027.8,248.5 1028.7,250.4 1029.6,251.6 1030.5,252.7 1031.4,253.1 1032.3,253.6 1033.2,254.2 1034.1,254.3 1035.0,253.0 1035.8,252.1 1036.7,251.1 1037.6,250.5 1038.5,250.5 1039.4,252.0 1040.3,253.0 1041.2,254.0 1042.1,254.0 1043.0,254.0 1043.9,253.1 1044.8,252.1 1045.7,250.6 1046.6,249.5 1047.4,247.6 1048.3,246.8 1049.2,246.9 1050.1,247.9 1051.0,248.4 1051.9,249.5 1052.8,249.9 1053.7,249.5 1054.6,249.6 1055.5,250.2 1056.4,250.5 1057.3,250.6 1058.2,250.7 1059.0,250.8 1059.9,250.7 1060.8,251.4 1061.7,252.1 1062.6,253.4 1063.5,253.9 1064.4,254.4 1065.3,254.4 1066.2,255.0 1067.1,254.5 1068.0,252.7 1068.9,252.1 1069.8,250.7 1070.6,248.9 1071.5,248.3 1072.4,249.0 1073.3,249.4 1074.2,250.6 1075.1,251.6 1076.0,252.1" fill="none" stroke="#e8702a" stroke-width="2" stroke-linejoin="round"/>
<text x="1068" y="243" font-size="12" font-weight="700" fill="#e8702a" text-anchor="end">19.2 %</text>
<text x="24" y="330" font-size="13" font-weight="600" fill="#59636e">UI frame rate (fps)</text>
<text x="1076" y="330" font-size="13" font-weight="700" fill="#e8702a" text-anchor="end">unchanged (59 fps)</text>
<line x1="24" y1="424" x2="1076" y2="424" stroke="#d1d9e0" stroke-width="1"/>
<line x1="24" y1="338" x2="1076" y2="338" stroke="#d1d9e0" stroke-width="1"/>
<text x="26" y="349" font-size="10" fill="#59636e">70</text>
<text x="26" y="421" font-size="10" fill="#59636e">0</text>
<line x1="548.7" y1="338" x2="548.7" y2="424" stroke="#8c959f" stroke-width="1" stroke-dasharray="4 4"/>
<polyline points="24.0,349.9 24.9,350.0 25.8,350.0 26.7,350.3 27.6,350.4 28.5,350.4 29.4,350.2 30.2,350.3 31.1,350.1 32.0,350.2 32.9,350.5 33.8,350.7 34.7,350.7 35.6,350.6 36.5,350.7 37.4,350.3 38.3,350.2 39.2,350.2 40.1,350.3 41.0,350.4 41.8,350.4 42.7,350.3 43.6,350.4 44.5,350.4 45.4,350.2 46.3,350.1 47.2,350.4 48.1,350.2 49.0,350.2 49.9,350.3 50.8,350.4 51.7,350.3 52.6,350.3 53.4,350.3 54.3,350.3 55.2,350.3 56.1,350.3 57.0,350.3 57.9,350.3 58.8,350.3 59.7,350.2 60.6,350.3 61.5,350.5 62.4,350.4 63.3,350.3 64.2,350.4 65.0,350.4 65.9,350.1 66.8,350.3 67.7,350.4 68.6,350.3 69.5,350.2 70.4,350.3 71.3,350.3 72.2,350.3 73.1,350.3 74.0,350.4 74.9,350.3 75.8,350.4 76.6,350.4 77.5,350.3 78.4,350.2 79.3,350.4 80.2,350.3 81.1,350.2 82.0,350.3 82.9,350.3 83.8,350.4 84.7,350.2 85.6,350.3 86.5,350.4 87.4,350.4 88.2,350.2 89.1,350.4 90.0,350.2 90.9,350.2 91.8,350.1 92.7,350.3 93.6,350.4 94.5,350.4 95.4,350.4 96.3,350.4 97.2,350.5 98.1,350.2 99.0,350.2 99.8,350.3 100.7,350.3 101.6,350.2 102.5,350.6 103.4,350.5 104.3,350.6 105.2,350.7 106.1,350.7 107.0,350.6 107.9,350.8 108.8,350.8 109.7,350.6 110.6,350.5 111.4,350.6 112.3,350.6 113.2,350.5 114.1,350.6 115.0,350.5 115.9,350.4 116.8,350.3 117.7,350.3 118.6,350.2 119.5,350.4 120.4,350.3 121.3,350.3 122.2,350.3 123.0,350.4 123.9,350.3 124.8,350.4 125.7,350.6 126.6,350.5 127.5,350.6 128.4,350.6 129.3,350.4 130.2,350.3 131.1,350.4 132.0,350.3 132.9,350.3 133.8,350.4 134.6,350.3 135.5,350.3 136.4,350.4 137.3,350.7 138.2,350.8 139.1,350.8 140.0,350.9 140.9,351.0 141.8,350.9 142.7,350.7 143.6,350.9 144.5,351.1 145.4,351.0 146.2,351.0 147.1,351.0 148.0,350.9 148.9,350.7 149.8,350.7 150.7,350.7 151.6,351.1 152.5,351.2 153.4,351.1 154.3,351.0 155.2,350.9 156.1,350.5 157.0,350.4 157.8,350.4 158.7,350.7 159.6,350.7 160.5,350.8 161.4,350.8 162.3,350.7 163.2,350.3 164.1,350.5 165.0,350.7 165.9,351.0 166.8,351.0 167.7,351.2 168.6,351.3 169.4,351.1 170.3,350.9 171.2,351.2 172.1,351.1 173.0,350.9 173.9,350.8 174.8,350.6 175.7,350.4 176.6,350.3 177.5,350.3 178.4,350.3 179.3,350.3 180.1,350.4 181.0,351.0 181.9,350.8 182.8,350.7 183.7,350.8 184.6,350.6 185.5,350.1 186.4,350.4 187.3,350.5 188.2,350.6 189.1,350.6 190.0,350.7 190.9,351.0 191.7,351.1 192.6,351.4 193.5,351.2 194.4,351.1 195.3,350.9 196.2,350.7 197.1,350.5 198.0,350.7 198.9,350.4 199.8,350.5 200.7,350.9 201.6,350.6 202.5,350.9 203.3,351.1 204.2,350.9 205.1,350.4 206.0,350.6 206.9,350.3 207.8,350.3 208.7,350.5 209.6,350.3 210.5,350.3 211.4,350.3 212.3,350.3 213.2,350.4 214.1,350.5 214.9,350.5 215.8,350.7 216.7,351.0 217.6,350.8 218.5,350.8 219.4,350.8 220.3,350.7 221.2,350.8 222.1,350.8 223.0,350.8 223.9,350.8 224.8,350.8 225.7,350.8 226.5,350.8 227.4,351.0 228.3,351.0 229.2,350.9 230.1,350.8 231.0,350.8 231.9,350.9 232.8,351.3 233.7,351.4 234.6,351.3 235.5,351.6 236.4,351.7 237.3,351.3 238.1,351.3 239.0,351.3 239.9,351.3 240.8,351.3 241.7,351.4 242.6,351.5 243.5,351.4 244.4,351.1 245.3,351.1 246.2,351.4 247.1,351.5 248.0,351.5 248.9,351.8 249.7,351.8 250.6,351.5 251.5,351.7 252.4,352.0 253.3,351.8 254.2,351.8 255.1,352.1 256.0,351.6 256.9,351.5 257.8,351.5 258.7,351.4 259.6,351.4 260.5,351.7 261.3,351.7 262.2,351.8 263.1,351.7 264.0,351.6 264.9,351.2 265.8,351.2 266.7,350.9 267.6,350.7 268.5,350.5 269.4,350.9 270.3,351.0 271.2,351.3 272.1,351.5 272.9,351.7 273.8,351.6 274.7,351.3 275.6,351.7 276.5,351.9 277.4,352.0 278.3,352.0 279.2,352.2 280.1,351.9 281.0,351.8 281.9,351.8 282.8,351.6 283.7,351.8 284.5,351.6 285.4,351.4 286.3,351.2 287.2,351.4 288.1,351.3 289.0,351.6 289.9,351.6 290.8,351.9 291.7,351.7 292.6,351.9 293.5,351.6 294.4,351.7 295.3,351.6 296.1,352.0 297.0,351.6 297.9,352.0 298.8,352.0 299.7,352.0 300.6,352.0 301.5,352.3 302.4,352.2 303.3,352.3 304.2,352.4 305.1,352.5 306.0,352.6 306.9,352.5 307.7,352.3 308.6,352.2 309.5,352.3 310.4,352.1 311.3,351.7 312.2,351.7 313.1,351.7 314.0,351.2 314.9,351.4 315.8,351.7 316.7,351.9 317.6,352.0 318.5,352.1 319.3,351.9 320.2,351.9 321.1,351.9 322.0,351.9 322.9,352.0 323.8,352.3 324.7,352.4 325.6,352.5 326.5,352.6 327.4,352.7 328.3,352.3 329.2,352.2 330.1,352.1 330.9,351.9 331.8,351.8 332.7,352.1 333.6,352.3 334.5,352.2 335.4,352.2 336.3,352.4 337.2,352.4 338.1,352.3 339.0,352.4 339.9,352.4 340.8,351.9 341.7,351.5 342.5,351.5 343.4,351.6 344.3,351.7 345.2,352.1 346.1,352.3 347.0,352.3 347.9,352.4 348.8,352.3 349.7,352.3 350.6,352.6 351.5,352.5 352.4,352.2 353.3,352.5 354.1,352.5 355.0,352.3 355.9,352.2 356.8,352.4 357.7,352.5 358.6,352.5 359.5,352.5 360.4,352.7 361.3,352.8 362.2,352.6 363.1,352.6 364.0,352.4 364.9,352.2 365.7,351.9 366.6,352.0 367.5,352.1 368.4,352.3 369.3,352.6 370.2,352.7 371.1,352.5 372.0,352.6 372.9,352.6 373.8,352.3 374.7,352.6 375.6,352.7 376.5,352.7 377.3,352.6 378.2,352.7 379.1,352.7 380.0,352.8 380.9,352.7 381.8,352.8 382.7,352.7 383.6,352.6 384.5,352.7 385.4,352.5 386.3,352.5 387.2,352.7 388.1,352.7 388.9,352.5 389.8,352.7 390.7,352.8 391.6,352.6 392.5,352.8 393.4,352.7 394.3,352.7 395.2,352.7 396.1,352.8 397.0,352.6 397.9,352.7 398.8,352.8 399.7,352.5 400.5,352.7 401.4,352.8 402.3,352.7 403.2,352.6 404.1,352.8 405.0,352.6 405.9,352.6 406.8,352.7 407.7,352.7 408.6,352.7 409.5,352.7 410.4,352.7 411.3,352.7 412.1,352.7 413.0,352.6 413.9,352.9 414.8,352.7 415.7,352.8 416.6,352.8 417.5,352.8 418.4,352.5 419.3,352.7 420.2,352.8 421.1,352.7 422.0,352.7 422.9,352.9 423.7,352.7 424.6,352.6 425.5,352.6 426.4,352.6 427.3,352.6 428.2,352.7 429.1,352.6 430.0,352.8 430.9,352.7 431.8,352.5 432.7,352.8 433.6,352.7 434.5,352.6 435.3,352.8 436.2,352.8 437.1,352.6 438.0,352.9 438.9,352.7 439.8,352.6 440.7,352.7 441.6,352.7 442.5,352.5 443.4,352.6 444.3,352.7 445.2,352.7 446.1,352.8 446.9,352.7 447.8,352.8 448.7,352.8 449.6,352.8 450.5,352.7 451.4,352.7 452.3,352.6 453.2,352.7 454.1,352.6 455.0,352.7 455.9,352.9 456.8,352.9 457.7,352.8 458.5,353.0 459.4,352.9 460.3,352.8 461.2,352.8 462.1,352.8 463.0,352.8 463.9,352.6 464.8,352.7 465.7,352.8 466.6,352.7 467.5,352.7 468.4,352.7 469.3,352.8 470.1,352.6 471.0,352.8 471.9,352.6 472.8,352.7 473.7,352.9 474.6,352.8 475.5,352.8 476.4,352.8 477.3,352.8 478.2,352.5 479.1,352.7 480.0,352.6 480.9,352.8 481.7,352.7 482.6,352.7 483.5,352.8 484.4,352.8 485.3,352.7 486.2,352.7 487.1,352.7 488.0,352.7 488.9,352.6 489.8,352.5 490.7,352.8 491.6,352.9 492.4,352.7 493.3,352.7 494.2,352.8 495.1,352.7 496.0,352.5 496.9,352.8 497.8,353.1 498.7,352.9 499.6,352.9 500.5,353.1 501.4,352.9 502.3,352.6 503.2,352.8 504.0,353.0 504.9,353.2 505.8,353.4 506.7,353.4 507.6,353.7 508.5,353.5 509.4,353.3 510.3,353.2 511.2,353.5 512.1,353.2 513.0,353.2 513.9,353.3 514.8,353.2 515.6,353.1 516.5,353.1 517.4,352.9 518.3,352.9 519.2,353.0 520.1,352.9 521.0,353.0 521.9,353.3 522.8,353.3 523.7,353.4 524.6,353.7 525.5,353.3 526.4,353.2 527.2,353.3 528.1,352.9 529.0,352.7 529.9,353.0 530.8,353.1 531.7,353.0 532.6,353.0 533.5,352.9 534.4,352.7 535.3,352.5 536.2,352.7 537.1,353.0 538.0,353.0 538.8,353.1 539.7,353.3 540.6,353.2 541.5,353.1 542.4,353.2 543.3,353.1 544.2,352.9 545.1,352.9 546.0,353.3 546.9,353.2 547.8,353.2 548.7,353.5" fill="none" stroke="#818b98" stroke-width="2" stroke-linejoin="round"/>
<polyline points="548.7,352.5 549.6,351.8 550.4,351.6 551.3,350.3 552.2,350.5 553.1,350.2 554.0,350.3 554.9,350.3 555.8,350.3 556.7,350.2 557.6,350.3 558.5,350.2 559.4,350.2 560.3,350.2 561.2,350.3 562.0,350.5 562.9,350.3 563.8,350.3 564.7,350.3 565.6,350.2 566.5,350.1 567.4,350.3 568.3,350.4 569.2,350.3 570.1,350.4 571.0,350.4 571.9,350.4 572.8,350.3 573.6,350.3 574.5,350.2 575.4,350.4 576.3,350.2 577.2,350.3 578.1,350.5 579.0,350.5 579.9,350.3 580.8,350.3 581.7,350.3 582.6,350.2 583.5,350.3 584.4,350.1 585.2,350.3 586.1,350.4 587.0,350.4 587.9,350.3 588.8,350.5 589.7,350.3 590.6,350.3 591.5,350.2 592.4,350.2 593.3,350.2 594.2,350.3 595.1,350.4 596.0,350.4 596.8,350.3 597.7,350.4 598.6,350.4 599.5,350.2 600.4,350.2 601.3,350.4 602.2,350.3 603.1,350.3 604.0,350.3 604.9,350.5 605.8,350.4 606.7,350.3 607.6,350.3 608.4,350.3 609.3,350.3 610.2,350.2 611.1,350.2 612.0,350.4 612.9,350.3 613.8,350.2 614.7,350.3 615.6,350.4 616.5,350.3 617.4,350.4 618.3,350.3 619.2,350.4 620.0,350.3 620.9,350.2 621.8,350.3 622.7,350.4 623.6,350.2 624.5,350.2 625.4,350.4 626.3,350.3 627.2,350.1 628.1,350.3 629.0,350.3 629.9,350.1 630.8,350.2 631.6,350.3 632.5,350.3 633.4,350.2 634.3,350.3 635.2,350.4 636.1,350.3 637.0,350.3 637.9,350.4 638.8,350.5 639.7,350.2 640.6,350.4 641.5,350.4 642.4,350.2 643.2,350.1 644.1,350.4 645.0,350.2 645.9,350.2 646.8,350.4 647.7,350.5 648.6,350.3 649.5,350.4 650.4,350.5 651.3,350.4 652.2,350.4 653.1,350.4 654.0,350.4 654.8,350.3 655.7,350.4 656.6,350.2 657.5,350.4 658.4,350.6 659.3,350.5 660.2,350.5 661.1,350.6 662.0,350.6 662.9,350.7 663.8,350.5 664.7,350.6 665.6,350.7 666.4,350.7 667.3,350.8 668.2,350.9 669.1,350.9 670.0,350.8 670.9,350.6 671.8,350.6 672.7,350.6 673.6,350.6 674.5,350.9 675.4,351.0 676.3,350.9 677.2,350.9 678.0,350.9 678.9,350.7 679.8,350.6 680.7,350.6 681.6,350.6 682.5,350.3 683.4,350.4 684.3,350.5 685.2,350.6 686.1,350.8 687.0,351.1 687.9,351.1 688.8,351.1 689.6,351.3 690.5,350.9 691.4,350.8 692.3,350.8 693.2,350.6 694.1,350.3 695.0,350.5 695.9,350.4 696.8,350.3 697.7,350.3 698.6,350.4 699.5,350.3 700.4,350.4 701.2,350.5 702.1,350.5 703.0,350.5 703.9,350.6 704.8,350.4 705.7,350.3 706.6,350.4 707.5,350.6 708.4,350.9 709.3,351.3 710.2,351.3 711.1,351.1 712.0,351.1 712.8,350.7 713.7,350.3 714.6,350.4 715.5,350.8 716.4,350.6 717.3,350.7 718.2,350.8 719.1,350.7 720.0,350.4 720.9,350.7 721.8,350.7 722.7,350.9 723.6,351.0 724.4,351.3 725.3,350.9 726.2,351.1 727.1,350.9 728.0,350.8 728.9,350.8 729.8,351.2 730.7,351.0 731.6,351.2 732.5,350.9 733.4,350.7 734.3,350.4 735.1,350.8 736.0,350.4 736.9,350.7 737.8,351.0 738.7,350.9 739.6,350.7 740.5,350.8 741.4,350.9 742.3,350.6 743.2,350.9 744.1,350.8 745.0,350.8 745.9,350.8 746.7,350.9 747.6,350.9 748.5,350.9 749.4,351.1 750.3,351.3 751.2,351.1 752.1,350.9 753.0,351.2 753.9,351.4 754.8,351.0 755.7,351.1 756.6,351.3 757.5,350.9 758.3,350.8 759.2,350.8 760.1,351.1 761.0,351.1 761.9,351.2 762.8,351.0 763.7,351.2 764.6,351.3 765.5,351.3 766.4,351.6 767.3,352.0 768.2,352.1 769.1,352.2 769.9,352.2 770.8,352.2 771.7,352.2 772.6,352.0 773.5,352.0 774.4,352.0 775.3,351.9 776.2,351.6 777.1,351.7 778.0,351.5 778.9,351.7 779.8,351.7 780.7,352.2 781.5,352.1 782.4,352.3 783.3,351.9 784.2,352.1 785.1,352.0 786.0,351.9 786.9,351.6 787.8,351.7 788.7,351.5 789.6,351.4 790.5,351.7 791.4,351.7 792.3,351.9 793.1,352.1 794.0,351.9 794.9,351.8 795.8,351.9 796.7,351.4 797.6,351.3 798.5,351.7 799.4,351.8 800.3,351.6 801.2,352.3 802.1,352.3 803.0,352.3 803.9,352.2 804.7,352.5 805.6,352.4 806.5,352.6 807.4,352.3 808.3,352.4 809.2,352.1 810.1,352.0 811.0,351.8 811.9,351.6 812.8,351.6 813.7,351.9 814.6,351.8 815.5,351.9 816.3,352.4 817.2,352.6 818.1,352.3 819.0,352.3 819.9,352.2 820.8,352.0 821.7,351.9 822.6,352.2 823.5,352.3 824.4,352.3 825.3,352.3 826.2,352.1 827.1,351.8 827.9,351.9 828.8,352.0 829.7,352.0 830.6,352.1 831.5,351.7 832.4,351.6 833.3,351.5 834.2,351.5 835.1,351.6 836.0,352.2 836.9,352.2 837.8,352.3 838.7,352.3 839.5,352.1 840.4,351.9 841.3,352.1 842.2,352.1 843.1,352.0 844.0,352.3 844.9,352.3 845.8,352.2 846.7,352.3 847.6,352.4 848.5,352.2 849.4,352.3 850.3,352.3 851.1,352.1 852.0,352.1 852.9,352.1 853.8,352.0 854.7,352.0 855.6,352.2 856.5,352.1 857.4,352.3 858.3,352.4 859.2,352.2 860.1,352.1 861.0,352.3 861.9,352.4 862.7,352.3 863.6,352.6 864.5,352.7 865.4,352.7 866.3,352.7 867.2,352.6 868.1,352.3 869.0,352.4 869.9,352.1 870.8,351.8 871.7,352.2 872.6,352.4 873.5,352.3 874.3,352.2 875.2,352.3 876.1,352.0 877.0,352.2 877.9,352.2 878.8,352.4 879.7,352.4 880.6,352.6 881.5,352.4 882.4,352.5 883.3,352.4 884.2,352.5 885.1,352.5 885.9,352.6 886.8,352.5 887.7,352.5 888.6,352.4 889.5,352.4 890.4,352.4 891.3,352.7 892.2,352.8 893.1,352.9 894.0,352.8 894.9,352.7 895.8,352.3 896.7,352.5 897.5,352.4 898.4,352.3 899.3,352.5 900.2,352.9 901.1,352.7 902.0,352.7 902.9,352.8 903.8,352.7 904.7,352.7 905.6,352.9 906.5,352.8 907.4,352.7 908.3,352.8 909.1,352.5 910.0,352.7 910.9,352.6 911.8,352.7 912.7,352.6 913.6,352.9 914.5,352.5 915.4,352.8 916.3,352.7 917.2,352.7 918.1,352.5 919.0,352.8 919.9,352.6 920.7,352.7 921.6,352.6 922.5,352.8 923.4,352.6 924.3,352.7 925.2,352.7 926.1,352.8 927.0,352.8 927.9,352.8 928.8,352.8 929.7,352.6 930.6,352.5 931.5,352.7 932.3,352.7 933.2,352.7 934.1,352.6 935.0,352.8 935.9,352.6 936.8,352.5 937.7,352.4 938.6,352.5 939.5,352.4 940.4,352.6 941.3,352.6 942.2,352.6 943.1,352.8 943.9,352.8 944.8,352.7 945.7,352.9 946.6,352.9 947.5,352.7 948.4,352.7 949.3,352.6 950.2,352.6 951.1,352.7 952.0,352.8 952.9,352.8 953.8,352.7 954.7,352.8 955.5,352.5 956.4,352.7 957.3,352.7 958.2,352.7 959.1,352.7 960.0,352.7 960.9,352.7 961.8,352.6 962.7,352.8 963.6,352.6 964.5,352.8 965.4,352.7 966.2,352.7 967.1,352.7 968.0,352.6 968.9,352.6 969.8,352.6 970.7,352.8 971.6,352.8 972.5,352.8 973.4,352.7 974.3,352.7 975.2,352.6 976.1,352.6 977.0,352.6 977.8,352.7 978.7,352.9 979.6,352.7 980.5,352.2 981.4,352.3 982.3,352.2 983.2,352.2 984.1,352.2 985.0,352.7 985.9,352.7 986.8,352.8 987.7,352.7 988.6,352.8 989.4,352.8 990.3,352.7 991.2,352.7 992.1,352.6 993.0,352.7 993.9,352.7 994.8,352.6 995.7,352.7 996.6,352.7 997.5,352.8 998.4,352.8 999.3,352.7 1000.2,352.8 1001.0,353.0 1001.9,353.0 1002.8,352.7 1003.7,353.0 1004.6,352.7 1005.5,352.7 1006.4,352.5 1007.3,352.8 1008.2,352.7 1009.1,352.8 1010.0,352.6 1010.9,352.8 1011.8,352.7 1012.6,352.8 1013.5,352.6 1014.4,352.8 1015.3,352.8 1016.2,352.6 1017.1,352.7 1018.0,352.9 1018.9,352.6 1019.8,352.6 1020.7,352.8 1021.6,352.7 1022.5,352.6 1023.4,352.9 1024.2,352.8 1025.1,352.7 1026.0,352.7 1026.9,352.6 1027.8,352.5 1028.7,352.6 1029.6,352.8 1030.5,352.7 1031.4,352.9 1032.3,352.8 1033.2,352.9 1034.1,352.7 1035.0,352.9 1035.8,352.9 1036.7,353.0 1037.6,352.8 1038.5,352.8 1039.4,352.8 1040.3,352.8 1041.2,352.7 1042.1,353.0 1043.0,352.9 1043.9,353.0 1044.8,353.1 1045.7,353.2 1046.6,353.2 1047.4,353.3 1048.3,353.1 1049.2,352.9 1050.1,352.9 1051.0,352.7 1051.9,352.7 1052.8,352.8 1053.7,352.7 1054.6,352.7 1055.5,352.8 1056.4,352.7 1057.3,352.7 1058.2,352.8 1059.0,352.7 1059.9,353.0 1060.8,353.1 1061.7,353.1 1062.6,353.3 1063.5,353.2 1064.4,352.8 1065.3,352.8 1066.2,352.8 1067.1,352.6 1068.0,352.5 1068.9,352.5 1069.8,352.6 1070.6,352.8 1071.5,352.7 1072.4,353.0 1073.3,353.3 1074.2,353.0 1075.1,352.7 1076.0,353.1" fill="none" stroke="#e8702a" stroke-width="2" stroke-linejoin="round"/>
<text x="24" y="456" font-size="13" font-weight="600" fill="#59636e">Ring on disk (MB)</text>
<text x="1076" y="456" font-size="13" font-weight="700" fill="#e8702a" text-anchor="end">plateaus at 75 MB</text>
<line x1="24" y1="550" x2="1076" y2="550" stroke="#d1d9e0" stroke-width="1"/>
<line x1="24" y1="464" x2="1076" y2="464" stroke="#d1d9e0" stroke-width="1"/>
<text x="26" y="475" font-size="10" fill="#59636e">90</text>
<text x="26" y="547" font-size="10" fill="#59636e">0</text>
<line x1="548.7" y1="464" x2="548.7" y2="550" stroke="#8c959f" stroke-width="1" stroke-dasharray="4 4"/>
<polyline points="24.0,550.0 24.9,550.0 25.8,550.0 26.7,550.0 27.6,550.0 28.5,550.0 29.4,550.0 30.2,550.0 31.1,550.0 32.0,550.0 32.9,550.0 33.8,550.0 34.7,550.0 35.6,550.0 36.5,550.0 37.4,550.0 38.3,550.0 39.2,550.0 40.1,550.0 41.0,550.0 41.8,550.0 42.7,550.0 43.6,550.0 44.5,550.0 45.4,550.0 46.3,550.0 47.2,550.0 48.1,550.0 49.0,550.0 49.9,550.0 50.8,550.0 51.7,550.0 52.6,550.0 53.4,550.0 54.3,550.0 55.2,550.0 56.1,550.0 57.0,550.0 57.9,550.0 58.8,550.0 59.7,550.0 60.6,550.0 61.5,550.0 62.4,550.0 63.3,550.0 64.2,550.0 65.0,550.0 65.9,550.0 66.8,550.0 67.7,550.0 68.6,550.0 69.5,550.0 70.4,550.0 71.3,550.0 72.2,550.0 73.1,550.0 74.0,550.0 74.9,550.0 75.8,550.0 76.6,550.0 77.5,550.0 78.4,550.0 79.3,550.0 80.2,550.0 81.1,550.0 82.0,550.0 82.9,550.0 83.8,550.0 84.7,550.0 85.6,550.0 86.5,550.0 87.4,550.0 88.2,550.0 89.1,550.0 90.0,550.0 90.9,550.0 91.8,550.0 92.7,550.0 93.6,550.0 94.5,550.0 95.4,550.0 96.3,550.0 97.2,550.0 98.1,550.0 99.0,550.0 99.8,550.0 100.7,550.0 101.6,550.0 102.5,550.0 103.4,550.0 104.3,550.0 105.2,550.0 106.1,550.0 107.0,550.0 107.9,550.0 108.8,550.0 109.7,550.0 110.6,550.0 111.4,550.0 112.3,550.0 113.2,550.0 114.1,550.0 115.0,550.0 115.9,550.0 116.8,550.0 117.7,550.0 118.6,550.0 119.5,550.0 120.4,550.0 121.3,550.0 122.2,550.0 123.0,550.0 123.9,550.0 124.8,550.0 125.7,550.0 126.6,550.0 127.5,550.0 128.4,550.0 129.3,550.0 130.2,550.0 131.1,550.0 132.0,550.0 132.9,550.0 133.8,550.0 134.6,550.0 135.5,550.0 136.4,550.0 137.3,550.0 138.2,550.0 139.1,550.0 140.0,550.0 140.9,550.0 141.8,550.0 142.7,550.0 143.6,550.0 144.5,550.0 145.4,550.0 146.2,550.0 147.1,550.0 148.0,550.0 148.9,550.0 149.8,550.0 150.7,550.0 151.6,550.0 152.5,550.0 153.4,550.0 154.3,550.0 155.2,550.0 156.1,550.0 157.0,550.0 157.8,550.0 158.7,550.0 159.6,550.0 160.5,550.0 161.4,550.0 162.3,550.0 163.2,550.0 164.1,550.0 165.0,550.0 165.9,550.0 166.8,550.0 167.7,550.0 168.6,550.0 169.4,550.0 170.3,550.0 171.2,550.0 172.1,550.0 173.0,550.0 173.9,550.0 174.8,550.0 175.7,550.0 176.6,550.0 177.5,550.0 178.4,550.0 179.3,550.0 180.1,550.0 181.0,550.0 181.9,550.0 182.8,550.0 183.7,550.0 184.6,550.0 185.5,550.0 186.4,550.0 187.3,550.0 188.2,550.0 189.1,550.0 190.0,550.0 190.9,550.0 191.7,550.0 192.6,550.0 193.5,550.0 194.4,550.0 195.3,550.0 196.2,550.0 197.1,550.0 198.0,550.0 198.9,550.0 199.8,550.0 200.7,550.0 201.6,550.0 202.5,550.0 203.3,550.0 204.2,550.0 205.1,550.0 206.0,550.0 206.9,550.0 207.8,550.0 208.7,550.0 209.6,550.0 210.5,550.0 211.4,550.0 212.3,550.0 213.2,550.0 214.1,550.0 214.9,550.0 215.8,550.0 216.7,550.0 217.6,550.0 218.5,550.0 219.4,550.0 220.3,550.0 221.2,550.0 222.1,550.0 223.0,550.0 223.9,550.0 224.8,550.0 225.7,550.0 226.5,550.0 227.4,550.0 228.3,550.0 229.2,550.0 230.1,550.0 231.0,550.0 231.9,550.0 232.8,550.0 233.7,550.0 234.6,550.0 235.5,550.0 236.4,550.0 237.3,550.0 238.1,550.0 239.0,550.0 239.9,550.0 240.8,550.0 241.7,550.0 242.6,550.0 243.5,550.0 244.4,550.0 245.3,550.0 246.2,550.0 247.1,550.0 248.0,550.0 248.9,550.0 249.7,550.0 250.6,550.0 251.5,550.0 252.4,550.0 253.3,550.0 254.2,550.0 255.1,550.0 256.0,550.0 256.9,550.0 257.8,550.0 258.7,550.0 259.6,550.0 260.5,550.0 261.3,550.0 262.2,550.0 263.1,550.0 264.0,550.0 264.9,550.0 265.8,550.0 266.7,550.0 267.6,550.0 268.5,550.0 269.4,550.0 270.3,550.0 271.2,550.0 272.1,550.0 272.9,550.0 273.8,550.0 274.7,550.0 275.6,550.0 276.5,550.0 277.4,550.0 278.3,550.0 279.2,550.0 280.1,550.0 281.0,550.0 281.9,550.0 282.8,550.0 283.7,550.0 284.5,550.0 285.4,550.0 286.3,550.0 287.2,550.0 288.1,550.0 289.0,550.0 289.9,550.0 290.8,550.0 291.7,550.0 292.6,550.0 293.5,550.0 294.4,550.0 295.3,550.0 296.1,550.0 297.0,550.0 297.9,550.0 298.8,550.0 299.7,550.0 300.6,550.0 301.5,550.0 302.4,550.0 303.3,550.0 304.2,550.0 305.1,550.0 306.0,550.0 306.9,550.0 307.7,550.0 308.6,550.0 309.5,550.0 310.4,550.0 311.3,550.0 312.2,550.0 313.1,550.0 314.0,550.0 314.9,550.0 315.8,550.0 316.7,550.0 317.6,550.0 318.5,550.0 319.3,550.0 320.2,550.0 321.1,550.0 322.0,550.0 322.9,550.0 323.8,550.0 324.7,550.0 325.6,550.0 326.5,550.0 327.4,550.0 328.3,550.0 329.2,550.0 330.1,550.0 330.9,550.0 331.8,550.0 332.7,550.0 333.6,550.0 334.5,550.0 335.4,550.0 336.3,550.0 337.2,550.0 338.1,550.0 339.0,550.0 339.9,550.0 340.8,550.0 341.7,550.0 342.5,550.0 343.4,550.0 344.3,550.0 345.2,550.0 346.1,550.0 347.0,550.0 347.9,550.0 348.8,550.0 349.7,550.0 350.6,550.0 351.5,550.0 352.4,550.0 353.3,550.0 354.1,550.0 355.0,550.0 355.9,550.0 356.8,550.0 357.7,550.0 358.6,550.0 359.5,550.0 360.4,550.0 361.3,550.0 362.2,550.0 363.1,550.0 364.0,550.0 364.9,550.0 365.7,550.0 366.6,550.0 367.5,550.0 368.4,550.0 369.3,550.0 370.2,550.0 371.1,550.0 372.0,550.0 372.9,550.0 373.8,550.0 374.7,550.0 375.6,550.0 376.5,550.0 377.3,550.0 378.2,550.0 379.1,550.0 380.0,550.0 380.9,550.0 381.8,550.0 382.7,550.0 383.6,550.0 384.5,550.0 385.4,550.0 386.3,550.0 387.2,550.0 388.1,550.0 388.9,550.0 389.8,550.0 390.7,550.0 391.6,550.0 392.5,550.0 393.4,550.0 394.3,550.0 395.2,550.0 396.1,550.0 397.0,550.0 397.9,550.0 398.8,550.0 399.7,550.0 400.5,550.0 401.4,550.0 402.3,550.0 403.2,550.0 404.1,550.0 405.0,550.0 405.9,550.0 406.8,550.0 407.7,550.0 408.6,550.0 409.5,550.0 410.4,550.0 411.3,550.0 412.1,550.0 413.0,550.0 413.9,550.0 414.8,550.0 415.7,550.0 416.6,550.0 417.5,550.0 418.4,550.0 419.3,550.0 420.2,550.0 421.1,550.0 422.0,550.0 422.9,550.0 423.7,550.0 424.6,550.0 425.5,550.0 426.4,550.0 427.3,550.0 428.2,550.0 429.1,550.0 430.0,550.0 430.9,550.0 431.8,550.0 432.7,550.0 433.6,550.0 434.5,550.0 435.3,550.0 436.2,550.0 437.1,550.0 438.0,550.0 438.9,550.0 439.8,550.0 440.7,550.0 441.6,550.0 442.5,550.0 443.4,550.0 444.3,550.0 445.2,550.0 446.1,550.0 446.9,550.0 447.8,550.0 448.7,550.0 449.6,550.0 450.5,550.0 451.4,550.0 452.3,550.0 453.2,550.0 454.1,550.0 455.0,550.0 455.9,550.0 456.8,550.0 457.7,550.0 458.5,550.0 459.4,550.0 460.3,550.0 461.2,550.0 462.1,550.0 463.0,550.0 463.9,550.0 464.8,550.0 465.7,550.0 466.6,550.0 467.5,550.0 468.4,550.0 469.3,550.0 470.1,550.0 471.0,550.0 471.9,550.0 472.8,550.0 473.7,550.0 474.6,550.0 475.5,550.0 476.4,550.0 477.3,550.0 478.2,550.0 479.1,550.0 480.0,550.0 480.9,550.0 481.7,550.0 482.6,550.0 483.5,550.0 484.4,550.0 485.3,550.0 486.2,550.0 487.1,550.0 488.0,550.0 488.9,550.0 489.8,550.0 490.7,550.0 491.6,550.0 492.4,550.0 493.3,550.0 494.2,550.0 495.1,550.0 496.0,550.0 496.9,550.0 497.8,550.0 498.7,550.0 499.6,550.0 500.5,550.0 501.4,550.0 502.3,550.0 503.2,550.0 504.0,550.0 504.9,550.0 505.8,550.0 506.7,550.0 507.6,550.0 508.5,550.0 509.4,550.0 510.3,550.0 511.2,550.0 512.1,550.0 513.0,550.0 513.9,550.0 514.8,550.0 515.6,550.0 516.5,550.0 517.4,550.0 518.3,550.0 519.2,550.0 520.1,550.0 521.0,550.0 521.9,550.0 522.8,550.0 523.7,550.0 524.6,550.0 525.5,550.0 526.4,550.0 527.2,550.0 528.1,550.0 529.0,550.0 529.9,550.0 530.8,550.0 531.7,550.0 532.6,550.0 533.5,550.0 534.4,550.0 535.3,550.0 536.2,550.0 537.1,550.0 538.0,550.0 538.8,550.0 539.7,550.0 540.6,550.0 541.5,550.0 542.4,550.0 543.3,550.0 544.2,550.0 545.1,550.0 546.0,550.0 546.9,550.0 547.8,550.0 548.7,550.0" fill="none" stroke="#818b98" stroke-width="2" stroke-linejoin="round"/>
<polyline points="548.7,543.1 549.6,542.6 550.4,542.1 551.3,541.0 552.2,540.0 553.1,539.1 554.0,538.3 554.9,537.5 555.8,536.8 556.7,536.0 557.6,535.2 558.5,534.2 559.4,533.2 560.3,532.1 561.2,531.1 562.0,530.2 562.9,529.4 563.8,528.7 564.7,527.9 565.6,527.1 566.5,526.2 567.4,525.3 568.3,524.2 569.2,523.2 570.1,522.2 571.0,521.3 571.9,520.5 572.8,519.8 573.6,519.0 574.5,518.2 575.4,517.3 576.3,516.3 577.2,515.3 578.1,514.3 579.0,513.3 579.9,512.4 580.8,511.6 581.7,510.9 582.6,510.1 583.5,509.2 584.4,508.3 585.2,507.3 586.1,506.2 587.0,505.2 587.9,504.2 588.8,503.4 589.7,502.6 590.6,501.9 591.5,501.1 592.4,500.3 593.3,499.3 594.2,498.3 595.1,497.2 596.0,496.2 596.8,495.3 597.7,494.4 598.6,493.7 599.5,492.9 600.4,492.2 601.3,491.3 602.2,490.3 603.1,489.3 604.0,488.6 604.9,488.1 605.8,487.6 606.7,487.3 607.6,487.0 608.4,486.2 609.3,485.4 610.2,484.5 611.1,483.5 612.0,482.5 612.9,483.2 613.8,484.0 614.7,484.8 615.6,485.8 616.5,486.7 617.4,486.0 618.3,485.2 619.2,484.2 620.0,483.2 620.9,482.2 621.8,482.9 622.7,483.7 623.6,484.5 624.5,485.5 625.4,486.5 626.3,485.7 627.2,484.9 628.1,484.0 629.0,482.9 629.9,481.9 630.8,482.6 631.6,483.4 632.5,484.2 633.4,485.2 634.3,486.1 635.2,485.3 636.1,484.5 637.0,483.6 637.9,482.6 638.8,483.2 639.7,484.0 640.6,484.8 641.5,485.7 642.4,486.7 643.2,485.9 644.1,485.1 645.0,484.2 645.9,483.3 646.8,482.2 647.7,482.9 648.6,483.7 649.5,484.5 650.4,485.4 651.3,486.4 652.2,485.6 653.1,484.8 654.0,483.9 654.8,482.9 655.7,481.8 656.6,482.6 657.5,483.4 658.4,484.2 659.3,485.2 660.2,486.2 661.1,485.4 662.0,484.6 662.9,483.6 663.8,482.6 664.7,481.5 665.6,482.2 666.4,483.0 667.3,483.9 668.2,484.9 669.1,485.9 670.0,485.1 670.9,484.3 671.8,483.3 672.7,482.3 673.6,483.0 674.5,483.8 675.4,484.6 676.3,485.5 677.2,486.5 678.0,485.8 678.9,485.0 679.8,484.1 680.7,483.2 681.6,482.1 682.5,482.8 683.4,483.6 684.3,484.4 685.2,485.3 686.1,486.3 687.0,485.5 687.9,484.7 688.8,483.8 689.6,482.9 690.5,481.8 691.4,482.5 692.3,483.3 693.2,484.2 694.1,485.1 695.0,486.1 695.9,485.3 696.8,484.5 697.7,483.6 698.6,482.6 699.5,481.5 700.4,482.2 701.2,483.0 702.1,483.8 703.0,484.8 703.9,485.8 704.8,485.0 705.7,484.1 706.6,483.1 707.5,482.1 708.4,482.8 709.3,483.5 710.2,484.4 711.1,485.3 712.0,486.2 712.8,485.5 713.7,484.7 714.6,483.8 715.5,482.8 716.4,481.7 717.3,482.4 718.2,483.2 719.1,484.1 720.0,485.0 720.9,486.0 721.8,485.2 722.7,484.4 723.6,483.5 724.4,482.5 725.3,481.5 726.2,482.2 727.1,483.0 728.0,483.9 728.9,484.8 729.8,485.8 730.7,485.0 731.6,484.2 732.5,483.3 733.4,482.3 734.3,481.2 735.1,481.9 736.0,482.8 736.9,483.6 737.8,484.6 738.7,485.6 739.6,484.8 740.5,484.0 741.4,483.0 742.3,482.0 743.2,482.7 744.1,483.5 745.0,484.3 745.9,485.2 746.7,486.2 747.6,485.5 748.5,484.7 749.4,483.8 750.3,482.9 751.2,481.9 752.1,482.6 753.0,483.4 753.9,484.2 754.8,485.1 755.7,486.1 756.6,485.3 757.5,484.5 758.3,483.6 759.2,482.6 760.1,481.6 761.0,482.3 761.9,483.1 762.8,484.0 763.7,484.9 764.6,486.0 765.5,485.2 766.4,484.4 767.3,483.5 768.2,482.5 769.1,481.5 769.9,482.2 770.8,483.0 771.7,483.9 772.6,484.9 773.5,485.9 774.4,485.1 775.3,484.3 776.2,483.4 777.1,482.4 778.0,481.3 778.9,482.0 779.8,482.9 780.7,483.7 781.5,484.7 782.4,485.7 783.3,484.9 784.2,484.0 785.1,483.1 786.0,482.1 786.9,482.7 787.8,483.5 788.7,484.3 789.6,485.2 790.5,486.2 791.4,485.4 792.3,484.6 793.1,483.8 794.0,482.8 794.9,481.8 795.8,482.5 796.7,483.2 797.6,484.0 798.5,484.9 799.4,485.9 800.3,485.2 801.2,484.3 802.1,483.4 803.0,482.4 803.9,481.3 804.7,482.0 805.6,482.8 806.5,483.7 807.4,484.6 808.3,485.7 809.2,484.9 810.1,484.1 811.0,483.2 811.9,482.2 812.8,481.1 813.7,481.9 814.6,482.7 815.5,483.6 816.3,484.6 817.2,485.6 818.1,484.8 819.0,484.0 819.9,483.1 820.8,482.1 821.7,481.0 822.6,481.8 823.5,482.6 824.4,483.5 825.3,484.5 826.2,485.5 827.1,484.7 827.9,483.9 828.8,482.9 829.7,481.9 830.6,482.6 831.5,483.4 832.4,484.2 833.3,485.1 834.2,486.1 835.1,485.3 836.0,484.6 836.9,483.7 837.8,482.8 838.7,481.8 839.5,482.5 840.4,483.3 841.3,484.1 842.2,485.0 843.1,486.0 844.0,485.3 844.9,484.5 845.8,483.7 846.7,482.7 847.6,481.7 848.5,482.4 849.4,483.2 850.3,484.1 851.1,485.0 852.0,486.0 852.9,485.2 853.8,484.4 854.7,483.5 855.6,482.5 856.5,481.4 857.4,482.2 858.3,483.0 859.2,483.9 860.1,484.8 861.0,485.9 861.9,485.1 862.7,484.3 863.6,483.4 864.5,482.4 865.4,481.3 866.3,482.1 867.2,482.9 868.1,483.8 869.0,484.8 869.9,485.8 870.8,485.0 871.7,484.2 872.6,483.3 873.5,482.3 874.3,481.2 875.2,481.9 876.1,482.7 877.0,483.6 877.9,484.6 878.8,485.6 879.7,484.8 880.6,483.9 881.5,483.0 882.4,482.0 883.3,482.7 884.2,483.4 885.1,484.2 885.9,485.1 886.8,486.1 887.7,485.4 888.6,484.6 889.5,483.7 890.4,482.8 891.3,481.8 892.2,482.5 893.1,483.2 894.0,484.1 894.9,485.0 895.8,486.0 896.7,485.2 897.5,484.4 898.4,483.6 899.3,482.6 900.2,481.6 901.1,482.3 902.0,483.1 902.9,483.9 903.8,484.9 904.7,485.9 905.6,485.2 906.5,484.3 907.4,483.4 908.3,482.4 909.1,481.4 910.0,482.1 910.9,482.9 911.8,483.7 912.7,484.7 913.6,485.7 914.5,484.9 915.4,484.1 916.3,483.2 917.2,482.2 918.1,481.2 919.0,481.9 919.9,482.7 920.7,483.6 921.6,484.6 922.5,485.6 923.4,484.8 924.3,484.0 925.2,483.1 926.1,482.1 927.0,481.0 927.9,481.8 928.8,482.6 929.7,483.5 930.6,484.5 931.5,485.5 932.3,484.7 933.2,483.8 934.1,482.9 935.0,481.9 935.9,482.6 936.8,483.4 937.7,484.2 938.6,485.1 939.5,486.1 940.4,485.3 941.3,484.5 942.2,483.7 943.1,482.8 943.9,481.8 944.8,482.5 945.7,483.3 946.6,484.1 947.5,485.1 948.4,486.1 949.3,485.3 950.2,484.5 951.1,483.7 952.0,482.7 952.9,481.7 953.8,482.4 954.7,483.2 955.5,484.1 956.4,485.0 957.3,486.0 958.2,485.3 959.1,484.5 960.0,483.6 960.9,482.6 961.8,481.5 962.7,482.3 963.6,483.1 964.5,483.9 965.4,484.9 966.2,485.9 967.1,485.1 968.0,484.3 968.9,483.3 969.8,482.4 970.7,481.3 971.6,482.0 972.5,482.8 973.4,483.7 974.3,484.6 975.2,485.6 976.1,484.9 977.0,484.0 977.8,483.1 978.7,482.1 979.6,481.0 980.5,481.7 981.4,482.5 982.3,483.3 983.2,484.3 984.1,485.3 985.0,484.5 985.9,483.7 986.8,482.7 987.7,481.7 988.6,482.4 989.4,483.1 990.3,484.0 991.2,484.9 992.1,485.9 993.0,485.1 993.9,484.3 994.8,483.5 995.7,482.5 996.6,481.5 997.5,482.2 998.4,483.0 999.3,483.8 1000.2,484.8 1001.0,485.8 1001.9,485.0 1002.8,484.2 1003.7,483.3 1004.6,482.3 1005.5,481.2 1006.4,481.9 1007.3,482.7 1008.2,483.6 1009.1,484.6 1010.0,485.6 1010.9,484.8 1011.8,484.0 1012.6,483.1 1013.5,482.1 1014.4,481.0 1015.3,481.8 1016.2,482.6 1017.1,483.5 1018.0,484.5 1018.9,485.5 1019.8,484.7 1020.7,483.9 1021.6,482.9 1022.5,481.9 1023.4,482.6 1024.2,483.3 1025.1,484.1 1026.0,485.0 1026.9,486.0 1027.8,485.3 1028.7,484.5 1029.6,483.6 1030.5,482.7 1031.4,481.7 1032.3,482.4 1033.2,483.2 1034.1,484.1 1035.0,485.0 1035.8,486.0 1036.7,485.2 1037.6,484.4 1038.5,483.6 1039.4,482.6 1040.3,481.6 1041.2,482.4 1042.1,483.2 1043.0,484.0 1043.9,484.9 1044.8,486.0 1045.7,485.2 1046.6,484.4 1047.4,483.5 1048.3,482.6 1049.2,481.5 1050.1,482.3 1051.0,483.0 1051.9,483.9 1052.8,484.8 1053.7,485.9 1054.6,485.1 1055.5,484.3 1056.4,483.4 1057.3,482.4 1058.2,481.3 1059.0,482.1 1059.9,482.9 1060.8,483.8 1061.7,484.7 1062.6,485.7 1063.5,485.0 1064.4,484.1 1065.3,483.2 1066.2,482.2 1067.1,481.2 1068.0,481.9 1068.9,482.7 1069.8,483.5 1070.6,484.5 1071.5,485.5 1072.4,484.7 1073.3,483.9 1074.2,483.0 1075.1,482.5 1076.0,482.1" fill="none" stroke="#e8702a" stroke-width="2" stroke-linejoin="round"/>
<text x="24" y="588" font-size="11" fill="#59636e">iPhone 15 Pro · iOS 26.5 · full-screen canvas redrawn every frame (hardest content for H.264) · 1 Hz samples · identical load, only recording toggled</text>
</svg>